<?xml version="1.0" standalone="no"?><!DOCTYPE svg PUBLIC "-//W3C//DTD SVG 1.1//EN" "http://www.w3.org/Graphics/SVG/1.1/DTD/svg11.dtd">
<svg preserveAspectRatio="xMinYMin meet" width="100%" height="100%" viewBox="0 0 560.000 420.000"   version="1.1" xmlns="http://www.w3.org/2000/svg" xmlns:xlink="http://www.w3.org/1999/xlink">
  <desc>Matlab Figure Converted by PLOT2SVG written by Juerg Schwizer</desc>
  <rect x="0" y="0" width="560.000" height="420.000" fill="#ffffff" stroke="none" />
  <g>
  <clipPath id="ID000000">
    <rect x="153.800" y="83.000" width="272.000" height="272.000"/>
  </clipPath>
      <polyline fill="#ffffff" fill-opacity="1.00" stroke="none" stroke-width="3.5pt" stroke-opacity="1.00" stroke-dasharray="none" points="153.800,355.000 425.800,355.000 425.800,83.000 153.800,83.000 "/>
      <polyline fill="#ffffff" fill-opacity="1.00" stroke="none" stroke-width="3.5pt" stroke-opacity="1.00" stroke-dasharray="none" points="153.800,83.000 425.800,83.000 425.800,83.000 153.800,83.000 "/>
      <polyline fill="#ffffff" fill-opacity="1.00" stroke="none" stroke-width="3.5pt" stroke-opacity="1.00" stroke-dasharray="none" points="153.800,355.000 153.800,355.000 153.800,83.000 153.800,83.000 "/>
    <g>
<g clip-path="url(#ID000000)">
      <polyline fill="none" stroke="#7f7f7f" stroke-width="3.5pt" stroke-dasharray="none" points="153.800,193.971 156.067,193.971 158.333,192.227 160.600,192.227 162.867,193.971 165.133,196.538 167.400,196.538 169.667,196.538 171.933,196.538 174.200,196.538 176.467,196.538 178.733,196.538 181.000,196.538 183.267,196.538 185.533,196.538 187.800,196.538 190.067,197.361 192.333,197.361 194.600,197.361 196.867,197.645 199.133,197.930 201.400,197.645 203.667,197.645 205.933,197.930 208.200,197.930 210.467,198.052 212.733,199.822 215.000,203.738 217.267,203.738 219.533,202.603 221.800,202.603 224.067,204.110 226.333,204.483 228.600,204.483 230.867,204.750 233.133,208.167 235.400,208.167 237.667,208.167 239.933,211.851 242.200,208.167 244.467,208.167 246.733,208.167 249.000,219.174 251.267,219.174 253.533,220.904 255.800,236.935 258.067,236.935 260.333,229.958 262.600,229.958 264.867,229.958 267.133,229.958 269.400,229.958 271.667,229.958 273.933,229.958 276.200,229.958 278.467,227.742 280.733,225.526 283.000,225.526 285.267,225.526 287.533,218.689 289.800,211.851 292.067,211.851 294.333,211.851 296.600,211.851 298.867,211.851 301.133,218.689 303.400,225.526 305.667,227.443 307.933,227.443 310.200,227.443 312.467,228.045 314.733,228.045 317.000,228.045 319.267,228.045 321.533,228.045 323.800,228.045 326.067,228.045 328.333,228.045 330.600,228.045 332.867,228.045 335.133,228.045 337.400,228.045 339.667,228.045 341.933,228.045 344.200,228.045 346.467,228.045 348.733,228.703 351.000,229.360 353.267,229.360 355.533,229.360 357.800,229.360 360.067,229.360 362.333,229.360 364.600,229.360 366.867,229.360 369.133,257.907 371.400,257.907 373.667,257.907 375.933,257.907 378.200,257.907 380.467,257.907 382.733,257.907 385.000,257.907 387.267,257.907 389.533,257.907 391.800,286.453 394.067,286.453 396.333,257.249 398.600,257.249 400.867,257.249 403.133,286.453 405.400,286.453 407.667,286.453 409.933,286.453 412.200,286.453 414.467,286.453 416.733,286.453 419.000,286.453 421.267,286.453 423.533,286.453 425.800,286.453 "/>
<g>
</g>
</g>
<g clip-path="url(#ID000000)">
      <polyline fill="none" stroke="#000000" stroke-width="3.5pt" stroke-dasharray="none" points="108.467,191.800 561.800,191.800 "/>
<g>
</g>
</g>
<g clip-path="url(#ID000000)">
<g>
<circle cx="154.877" cy="206.167" r="3.000" fill="none" stroke="#000000" stroke-width="3.5pt" />
<circle cx="162.514" cy="209.028" r="3.000" fill="none" stroke="#000000" stroke-width="3.5pt" />
<circle cx="161.927" cy="195.715" r="3.000" fill="none" stroke="#000000" stroke-width="3.5pt" />
<circle cx="171.914" cy="209.100" r="3.000" fill="none" stroke="#000000" stroke-width="3.5pt" />
<circle cx="182.488" cy="221.089" r="3.000" fill="none" stroke="#000000" stroke-width="3.5pt" />
<circle cx="173.676" cy="204.911" r="3.000" fill="none" stroke="#000000" stroke-width="3.5pt" />
<circle cx="163.689" cy="192.227" r="3.000" fill="none" stroke="#000000" stroke-width="3.5pt" />
<circle cx="159.577" cy="178.186" r="3.000" fill="none" stroke="#000000" stroke-width="3.5pt" />
<circle cx="166.039" cy="189.443" r="3.000" fill="none" stroke="#000000" stroke-width="3.5pt" />
<circle cx="168.389" cy="190.862" r="3.000" fill="none" stroke="#000000" stroke-width="3.5pt" />
<circle cx="171.326" cy="190.184" r="3.000" fill="none" stroke="#000000" stroke-width="3.5pt" />
<circle cx="168.976" cy="181.061" r="3.000" fill="none" stroke="#000000" stroke-width="3.5pt" />
<circle cx="167.801" cy="169.845" r="3.000" fill="none" stroke="#000000" stroke-width="3.5pt" />
<circle cx="177.201" cy="187.428" r="3.000" fill="none" stroke="#000000" stroke-width="3.5pt" />
<circle cx="176.614" cy="197.930" r="3.000" fill="none" stroke="#000000" stroke-width="3.5pt" />
<circle cx="181.313" cy="201.468" r="3.000" fill="none" stroke="#000000" stroke-width="3.5pt" />
<circle cx="187.188" cy="205.016" r="3.000" fill="none" stroke="#000000" stroke-width="3.5pt" />
<circle cx="195.413" cy="230.295" r="3.000" fill="none" stroke="#000000" stroke-width="3.5pt" />
<circle cx="178.963" cy="162.927" r="3.000" fill="none" stroke="#000000" stroke-width="3.5pt" />
<circle cx="184.251" cy="181.879" r="3.000" fill="none" stroke="#000000" stroke-width="3.5pt" />
<circle cx="186.601" cy="191.703" r="3.000" fill="none" stroke="#000000" stroke-width="3.5pt" />
<circle cx="193.650" cy="197.361" r="3.000" fill="none" stroke="#000000" stroke-width="3.5pt" />
<circle cx="206.575" cy="219.174" r="3.000" fill="none" stroke="#000000" stroke-width="3.5pt" />
<circle cx="203.050" cy="203.738" r="3.000" fill="none" stroke="#000000" stroke-width="3.5pt" />
<circle cx="208.925" cy="204.483" r="3.000" fill="none" stroke="#000000" stroke-width="3.5pt" />
<circle cx="208.337" cy="198.175" r="3.000" fill="none" stroke="#000000" stroke-width="3.5pt" />
<circle cx="202.462" cy="189.724" r="3.000" fill="none" stroke="#000000" stroke-width="3.5pt" />
<circle cx="201.875" cy="173.610" r="3.000" fill="none" stroke="#000000" stroke-width="3.5pt" />
<circle cx="240.648" cy="257.261" r="3.000" fill="none" stroke="#000000" stroke-width="3.5pt" />
<circle cx="235.361" cy="243.912" r="3.000" fill="none" stroke="#000000" stroke-width="3.5pt" />
<circle cx="242.411" cy="229.958" r="3.000" fill="none" stroke="#000000" stroke-width="3.5pt" />
<circle cx="255.922" cy="211.851" r="3.000" fill="none" stroke="#000000" stroke-width="3.5pt" />
<circle cx="303.508" cy="225.526" r="3.000" fill="none" stroke="#000000" stroke-width="3.5pt" />
<circle cx="349.918" cy="288.223" r="3.000" fill="none" stroke="#000000" stroke-width="3.5pt" />
<circle cx="346.393" cy="229.360" r="3.000" fill="none" stroke="#000000" stroke-width="3.5pt" />
<circle cx="357.555" cy="228.045" r="3.000" fill="none" stroke="#000000" stroke-width="3.5pt" />
<circle cx="392.804" cy="286.453" r="3.000" fill="none" stroke="#000000" stroke-width="3.5pt" />
<circle cx="322.894" cy="108.705" r="3.000" fill="none" stroke="#000000" stroke-width="3.5pt" />
</g>
</g>
  <g transform="translate(289.300,413.900)">
    <g transform="rotate(-0.0)">
      <text x="0.000" y="0.000" font-family="Helvetica" text-anchor="middle" font-size="17.6pt" fill="#000000" >Preferred SF at high contrast (cpd)</text>
    </g>
  </g>
  <g transform="translate(119.300,218.620)">
    <g transform="rotate(-90.0)">
      <text x="0.000" y="0.000" font-family="Helvetica" text-anchor="middle" font-size="17.6pt" fill="#000000" >Shift in preferred SF (cpd)</text>
    </g>
  </g>
  <g transform="translate(289.300,63.780)">
    <g transform="rotate(-0.0)">
      <text x="0.000" y="0.000" font-family="Helvetica" text-anchor="middle" font-size="14.4pt" fill="#000000" >       Macaque V1\newline (Sceniak et al. 2002)</text>
    </g>
  </g>
    </g>
    <g>
      <polyline fill="none" stroke="#000000" stroke-width="3.5pt" stroke-dasharray="none" points="199.133,355.000 199.133,350.660 "/>
      <polyline fill="none" stroke="#000000" stroke-width="3.5pt" stroke-dasharray="none" points="289.800,355.000 289.800,350.660 "/>
      <polyline fill="none" stroke="#000000" stroke-width="3.5pt" stroke-dasharray="none" points="380.467,355.000 380.467,350.660 "/>
      <polyline fill="none" stroke="#000000" stroke-width="3.5pt" stroke-dasharray="none" points="153.800,355.000 425.800,355.000 "/>
  <g transform="translate(199.133,378.040)">
    <g transform="rotate(-0.0)">
      <text x="0.000" y="0.000" font-family="Helvetica" text-anchor="middle" font-size="17.6pt" fill="#000000" >2</text>
    </g>
  </g>
  <g transform="translate(289.800,378.040)">
    <g transform="rotate(-0.0)">
      <text x="0.000" y="0.000" font-family="Helvetica" text-anchor="middle" font-size="17.6pt" fill="#000000" >4</text>
    </g>
  </g>
  <g transform="translate(380.467,378.040)">
    <g transform="rotate(-0.0)">
      <text x="0.000" y="0.000" font-family="Helvetica" text-anchor="middle" font-size="17.6pt" fill="#000000" >6</text>
    </g>
  </g>
      <polyline fill="none" stroke="#000000" stroke-width="3.5pt" stroke-dasharray="none" points="153.800,300.600 156.520,300.600 "/>
      <polyline fill="none" stroke="#000000" stroke-width="3.5pt" stroke-dasharray="none" points="153.800,246.200 156.520,246.200 "/>
      <polyline fill="none" stroke="#000000" stroke-width="3.5pt" stroke-dasharray="none" points="153.800,191.800 156.520,191.800 "/>
      <polyline fill="none" stroke="#000000" stroke-width="3.5pt" stroke-dasharray="none" points="153.800,137.400 156.520,137.400 "/>
      <polyline fill="none" stroke="#000000" stroke-width="3.5pt" stroke-dasharray="none" points="153.800,355.000 153.800,83.000 "/>
  <g transform="translate(148.360,361.600)">
    <g transform="rotate(-0.0)">
      <text x="0.000" y="0.000" font-family="Helvetica" text-anchor="end" font-size="17.6pt" fill="#000000" >-3</text>
    </g>
  </g>
  <g transform="translate(148.360,307.200)">
    <g transform="rotate(-0.0)">
      <text x="0.000" y="0.000" font-family="Helvetica" text-anchor="end" font-size="17.6pt" fill="#000000" >-2</text>
    </g>
  </g>
  <g transform="translate(148.360,252.800)">
    <g transform="rotate(-0.0)">
      <text x="0.000" y="0.000" font-family="Helvetica" text-anchor="end" font-size="17.6pt" fill="#000000" >-1</text>
    </g>
  </g>
  <g transform="translate(148.360,198.400)">
    <g transform="rotate(-0.0)">
      <text x="0.000" y="0.000" font-family="Helvetica" text-anchor="end" font-size="17.6pt" fill="#000000" >0</text>
    </g>
  </g>
  <g transform="translate(148.360,144.000)">
    <g transform="rotate(-0.0)">
      <text x="0.000" y="0.000" font-family="Helvetica" text-anchor="end" font-size="17.6pt" fill="#000000" >1</text>
    </g>
  </g>
  <g transform="translate(148.360,89.600)">
    <g transform="rotate(-0.0)">
      <text x="0.000" y="0.000" font-family="Helvetica" text-anchor="end" font-size="17.6pt" fill="#000000" >2</text>
    </g>
  </g>
      <polyline fill="none" stroke="#000000" stroke-width="3.5pt" stroke-dasharray="none" points="153.800,355.000 153.800,352.280 "/>
      <polyline fill="none" stroke="#000000" stroke-width="3.5pt" stroke-dasharray="none" points="153.800,355.000 153.800,355.000 "/>
    </g>
  </g>
</svg>
