<?xml version="1.0" standalone="no"?><!DOCTYPE svg PUBLIC "-//W3C//DTD SVG 1.1//EN" "http://www.w3.org/Graphics/SVG/1.1/DTD/svg11.dtd">
<svg preserveAspectRatio="xMinYMin meet" width="100%" height="100%" viewBox="0 0 1121.000 420.000"   version="1.1" xmlns="http://www.w3.org/2000/svg" xmlns:xlink="http://www.w3.org/1999/xlink">
  <desc>Matlab Figure Converted by PLOT2SVG written by Juerg Schwizer</desc>
  <rect x="0" y="0" width="1121.000" height="420.000" fill="#ffffff" stroke="none" />
  <g>
  <clipPath id="ID000000">
    <rect x="471.549" y="90.763" width="223.774" height="223.774"/>
  </clipPath>
      <polyline fill="#ffffff" fill-opacity="1.00" stroke="none" stroke-width="3.5pt" stroke-opacity="1.00" stroke-dasharray="none" points="471.549,314.537 695.322,314.537 695.322,90.763 471.549,90.763 "/>
      <polyline fill="#ffffff" fill-opacity="1.00" stroke="none" stroke-width="3.5pt" stroke-opacity="1.00" stroke-dasharray="none" points="471.549,90.763 695.322,90.763 695.322,90.763 471.549,90.763 "/>
      <polyline fill="#ffffff" fill-opacity="1.00" stroke="none" stroke-width="3.5pt" stroke-opacity="1.00" stroke-dasharray="none" points="471.549,314.537 471.549,314.537 471.549,90.763 471.549,90.763 "/>
    <g>
<g clip-path="url(#ID000000)">
      <polyline fill="none" stroke="#4c4c4c" stroke-width="3.5pt" stroke-dasharray="none" points="486.467,276.237 486.925,274.037 487.398,271.726 487.885,269.302 488.387,266.759 488.904,264.094 489.437,261.305 489.987,258.388 490.553,255.340 491.137,252.159 491.739,248.843 492.359,245.391 492.998,241.801 493.657,238.074 494.337,234.209 495.037,230.209 495.758,226.077 496.502,221.815 497.269,217.428 498.059,212.923 498.873,208.307 499.713,203.590 500.578,198.782 501.470,193.896 502.389,188.947 503.337,183.951 504.313,178.927 505.320,173.897 506.357,168.882 507.427,163.909 508.529,159.005 509.665,154.199 510.836,149.523 512.043,145.009 513.287,140.692 514.570,136.608 515.891,132.794 517.254,129.286 518.658,126.122 520.105,123.337 521.597,120.967 523.134,119.045 524.719,117.601 526.353,116.664 528.036,116.256 529.772,116.398 531.561,117.103 533.404,118.379 535.305,120.231 537.263,122.654 539.282,125.638 541.363,129.169 543.508,133.225 545.719,137.777 547.998,142.795 550.346,148.240 552.767,154.072 555.262,160.248 557.834,166.721 560.485,173.444 563.217,180.371 566.034,187.451 568.937,194.640 571.928,201.889 575.012,209.155 578.191,216.393 581.467,223.561 584.844,230.620 588.325,237.531 591.913,244.258 595.611,250.766 599.422,257.024 603.351,263.003 607.400,268.676 611.574,274.021 615.875,279.019 620.309,283.655 624.880,287.920 629.590,291.807 634.446,295.317 639.450,298.454 644.609,301.228 649.926,303.652 655.406,305.746 661.054,307.531 666.876,309.033 672.877,310.277 679.063,311.292 685.438,312.107 692.009,312.749 698.782,313.247 705.763,313.625 712.959,313.906 720.376,314.110 728.020,314.255 735.900,314.356 744.021,314.424 752.392,314.468 761.020,314.496 769.914,314.514 "/>
<g>
</g>
</g>
<g clip-path="url(#ID000000)">
      <polyline fill="none" stroke="#a3a3a3" stroke-width="3.5pt" stroke-dasharray="none" points="486.467,295.422 486.925,294.079 487.398,292.649 487.885,291.128 488.387,289.511 488.904,287.794 489.437,285.971 489.987,284.039 490.553,281.991 491.137,279.825 491.739,277.535 492.359,275.117 492.998,272.568 493.657,269.883 494.337,267.060 495.037,264.096 495.758,260.990 496.502,257.740 497.269,254.346 498.059,250.810 498.873,247.133 499.713,243.319 500.578,239.372 501.470,235.301 502.389,231.113 503.337,226.819 504.313,222.432 505.320,217.967 506.357,213.441 507.427,208.875 508.529,204.291 509.665,199.715 510.836,195.175 512.043,190.701 513.287,186.327 514.570,182.087 515.891,178.019 517.254,174.161 518.658,170.554 520.105,167.238 521.597,164.254 523.134,161.642 524.719,159.440 526.353,157.686 528.036,156.411 529.772,155.647 531.561,155.418 533.404,155.745 535.305,156.639 537.263,158.110 539.282,160.157 541.363,162.773 543.508,165.944 545.719,169.649 547.998,173.858 550.346,178.538 552.767,183.649 555.262,189.144 557.834,194.975 560.485,201.088 563.217,207.429 566.034,213.939 568.937,220.564 571.928,227.243 575.012,233.923 578.191,240.546 581.467,247.060 584.844,253.415 588.325,259.563 591.913,265.462 595.611,271.073 599.422,276.362 603.351,281.301 607.400,285.868 611.574,290.049 615.875,293.836 620.309,297.226 624.880,300.226 629.590,302.849 634.446,305.110 639.450,307.035 644.609,308.648 649.926,309.982 655.406,311.066 661.054,311.933 666.876,312.615 672.877,313.142 679.063,313.542 685.438,313.840 692.009,314.057 698.782,314.213 705.763,314.322 712.959,314.397 720.376,314.448 728.020,314.481 735.900,314.503 744.021,314.517 752.392,314.525 761.020,314.530 769.914,314.533 "/>
<g>
</g>
</g>
<g clip-path="url(#ID000000)">
      <polyline fill="none" stroke="#c4c4c4" stroke-width="3.5pt" stroke-dasharray="none" points="486.467,312.620 486.925,312.460 487.398,312.286 487.885,312.098 488.387,311.894 488.904,311.674 489.437,311.435 489.987,311.176 490.553,310.897 491.137,310.594 491.739,310.267 492.359,309.914 492.998,309.532 493.657,309.120 494.337,308.675 495.037,308.195 495.758,307.679 496.502,307.122 497.269,306.524 498.059,305.881 498.873,305.191 499.713,304.451 500.578,303.659 501.470,302.812 502.389,301.908 503.337,300.945 504.313,299.920 505.320,298.832 506.357,297.681 507.427,296.465 508.529,295.184 509.665,293.841 510.836,292.436 512.043,290.973 513.287,289.456 514.570,287.893 515.891,286.291 517.254,284.661 518.658,283.015 520.105,281.369 521.597,279.741 523.134,278.152 524.719,276.626 526.353,275.189 528.036,273.871 529.772,272.704 531.561,271.719 533.404,270.949 535.305,270.428 537.263,270.182 539.282,270.239 541.363,270.615 543.508,271.323 545.719,272.363 547.998,273.725 550.346,275.389 552.767,277.325 555.262,279.490 557.834,281.838 560.485,284.316 563.217,286.870 566.034,289.444 568.937,291.990 571.928,294.463 575.012,296.826 578.191,299.049 581.467,301.112 584.844,303.001 588.325,304.709 591.913,306.236 595.611,307.586 599.422,308.766 603.351,309.789 607.400,310.665 611.574,311.408 615.875,312.033 620.309,312.552 624.880,312.979 629.590,313.328 634.446,313.608 639.450,313.832 644.609,314.008 649.926,314.145 655.406,314.250 661.054,314.330 666.876,314.389 672.877,314.433 679.063,314.465 685.438,314.488 692.009,314.504 698.782,314.515 705.763,314.523 712.959,314.528 720.376,314.531 728.020,314.533 735.900,314.535 744.021,314.536 752.392,314.536 761.020,314.536 769.914,314.537 "/>
<g>
</g>
</g>
<g clip-path="url(#ID000000)">
<g>
      <polyline fill="none" fill-opacity="1.00" stroke="#000000" stroke-width="3.5pt" stroke-opacity="1.00" stroke-dasharray="none" points="524.036,113.948 532.036,113.948 528.036,119.604 524.036,113.948 "/>
</g>
</g>
<g clip-path="url(#ID000000)">
<g>
      <polyline fill="none" fill-opacity="1.00" stroke="#000000" stroke-width="3.5pt" stroke-opacity="1.00" stroke-dasharray="none" points="527.561,153.110 535.561,153.110 531.561,158.766 527.561,153.110 "/>
</g>
</g>
<g clip-path="url(#ID000000)">
<g>
      <polyline fill="none" fill-opacity="1.00" stroke="#000000" stroke-width="3.5pt" stroke-opacity="1.00" stroke-dasharray="none" points="533.263,267.874 541.263,267.874 537.263,273.530 533.263,267.874 "/>
</g>
</g>
<g clip-path="url(#ID000000)">
      <polyline fill="none" stroke="#000000" stroke-width="3.5pt" stroke-dasharray="none" points="528.036,116.256 531.561,155.418 537.263,270.182 "/>
<g>
</g>
</g>
<g clip-path="url(#ID000000)">
<g>
<circle cx="486.640" cy="260.718" r="3.000" fill="none" stroke="#000000" stroke-width="3.5pt" />
<circle cx="494.136" cy="227.671" r="3.000" fill="none" stroke="#000000" stroke-width="3.5pt" />
<circle cx="501.676" cy="199.345" r="3.000" fill="none" stroke="#000000" stroke-width="3.5pt" />
<circle cx="514.116" cy="148.359" r="3.000" fill="none" stroke="#000000" stroke-width="3.5pt" />
<circle cx="533.096" cy="116.256" r="3.000" fill="none" stroke="#000000" stroke-width="3.5pt" />
<circle cx="555.555" cy="179.517" r="3.000" fill="none" stroke="#000000" stroke-width="3.5pt" />
<circle cx="593.010" cy="234.280" r="3.000" fill="none" stroke="#000000" stroke-width="3.5pt" />
<circle cx="651.259" cy="281.490" r="3.000" fill="none" stroke="#000000" stroke-width="3.5pt" />
<circle cx="711.251" cy="301.318" r="3.000" fill="none" stroke="#000000" stroke-width="3.5pt" />
</g>
</g>
<g clip-path="url(#ID000000)">
<g>
<circle cx="486.296" cy="294.709" r="3.000" fill="none" stroke="#000000" stroke-width="3.5pt" />
<circle cx="494.136" cy="255.997" r="3.000" fill="none" stroke="#000000" stroke-width="3.5pt" />
<circle cx="502.025" cy="210.676" r="3.000" fill="none" stroke="#000000" stroke-width="3.5pt" />
<circle cx="514.116" cy="178.573" r="3.000" fill="none" stroke="#000000" stroke-width="3.5pt" />
<circle cx="531.693" cy="150.247" r="3.000" fill="none" stroke="#000000" stroke-width="3.5pt" />
<circle cx="554.593" cy="222.006" r="3.000" fill="none" stroke="#000000" stroke-width="3.5pt" />
<circle cx="590.243" cy="257.885" r="3.000" fill="none" stroke="#000000" stroke-width="3.5pt" />
<circle cx="651.259" cy="288.099" r="3.000" fill="none" stroke="#000000" stroke-width="3.5pt" />
<circle cx="714.029" cy="306.983" r="3.000" fill="none" stroke="#000000" stroke-width="3.5pt" />
</g>
</g>
<g clip-path="url(#ID000000)">
<g>
<circle cx="486.467" cy="304.151" r="3.000" fill="none" stroke="#000000" stroke-width="3.5pt" />
<circle cx="494.136" cy="300.374" r="3.000" fill="none" stroke="#000000" stroke-width="3.5pt" />
<circle cx="501.331" cy="287.155" r="3.000" fill="none" stroke="#000000" stroke-width="3.5pt" />
<circle cx="512.199" cy="286.211" r="3.000" fill="none" stroke="#000000" stroke-width="3.5pt" />
<circle cx="531.693" cy="274.881" r="3.000" fill="none" stroke="#000000" stroke-width="3.5pt" />
<circle cx="554.593" cy="270.160" r="3.000" fill="none" stroke="#000000" stroke-width="3.5pt" />
<circle cx="593.010" cy="300.374" r="3.000" fill="none" stroke="#000000" stroke-width="3.5pt" />
<circle cx="653.342" cy="310.760" r="3.000" fill="none" stroke="#000000" stroke-width="3.5pt" />
<circle cx="711.251" cy="313.593" r="3.000" fill="none" stroke="#000000" stroke-width="3.5pt" />
</g>
</g>
  <g transform="translate(582.432,368.676)">
    <g transform="rotate(-0.0)">
      <text x="0.000" y="0.000" font-family="Helvetica" text-anchor="middle" font-size="16.0pt" fill="#000000" >Spatial frequency (cpd)</text>
    </g>
  </g>
  <g transform="translate(434.922,202.352)">
    <g transform="rotate(-90.0)">
      <text x="0.000" y="0.000" font-family="Helvetica" text-anchor="middle" font-size="16.0pt" fill="#000000" >Response (Hz)</text>
    </g>
  </g>
  <g transform="translate(583.436,73.988)">
    <g transform="rotate(-0.0)">
      <text x="0.000" y="0.000" font-family="Helvetica" text-anchor="middle" font-size="14.4pt" fill="#000000" > Intermediate SF neuron\newline     (Skottun et al. 1986)</text>
    </g>
  </g>
    </g>
    <g>
      <polyline fill="none" stroke="#000000" stroke-width="3.5pt" stroke-dasharray="none" points="546.140,314.537 546.140,312.299 "/>
      <polyline fill="none" stroke="#000000" stroke-width="3.5pt" stroke-dasharray="none" points="620.731,314.537 620.731,312.299 "/>
      <polyline fill="none" stroke="#000000" stroke-width="3.5pt" stroke-dasharray="none" points="471.549,314.537 695.322,314.537 "/>
  <g transform="translate(471.549,335.012)">
    <g transform="rotate(-0.0)">
      <text x="0.000" y="0.000" font-family="Helvetica" text-anchor="middle" font-size="16.0pt" fill="#000000" >0</text>
    </g>
  </g>
  <g transform="translate(546.140,335.012)">
    <g transform="rotate(-0.0)">
      <text x="0.000" y="0.000" font-family="Helvetica" text-anchor="middle" font-size="16.0pt" fill="#000000" >0.5</text>
    </g>
  </g>
  <g transform="translate(620.731,335.012)">
    <g transform="rotate(-0.0)">
      <text x="0.000" y="0.000" font-family="Helvetica" text-anchor="middle" font-size="16.0pt" fill="#000000" >1</text>
    </g>
  </g>
  <g transform="translate(695.322,335.012)">
    <g transform="rotate(-0.0)">
      <text x="0.000" y="0.000" font-family="Helvetica" text-anchor="middle" font-size="16.0pt" fill="#000000" >1.5</text>
    </g>
  </g>
      <polyline fill="none" stroke="#000000" stroke-width="3.5pt" stroke-dasharray="none" points="471.549,239.946 474.972,239.946 "/>
      <polyline fill="none" stroke="#000000" stroke-width="3.5pt" stroke-dasharray="none" points="471.549,165.354 474.972,165.354 "/>
      <polyline fill="none" stroke="#000000" stroke-width="3.5pt" stroke-dasharray="none" points="471.549,314.537 471.549,90.763 "/>
  <g transform="translate(467.073,320.537)">
    <g transform="rotate(-0.0)">
      <text x="0.000" y="0.000" font-family="Helvetica" text-anchor="end" font-size="16.0pt" fill="#000000" >0</text>
    </g>
  </g>
  <g transform="translate(467.073,245.946)">
    <g transform="rotate(-0.0)">
      <text x="0.000" y="0.000" font-family="Helvetica" text-anchor="end" font-size="16.0pt" fill="#000000" >20</text>
    </g>
  </g>
  <g transform="translate(467.073,171.354)">
    <g transform="rotate(-0.0)">
      <text x="0.000" y="0.000" font-family="Helvetica" text-anchor="end" font-size="16.0pt" fill="#000000" >40</text>
    </g>
  </g>
  <g transform="translate(467.073,96.763)">
    <g transform="rotate(-0.0)">
      <text x="0.000" y="0.000" font-family="Helvetica" text-anchor="end" font-size="16.0pt" fill="#000000" >60</text>
    </g>
  </g>
      <polyline fill="none" stroke="#000000" stroke-width="3.5pt" stroke-dasharray="none" points="471.549,314.537 471.549,312.299 "/>
      <polyline fill="none" stroke="#000000" stroke-width="3.5pt" stroke-dasharray="none" points="471.549,314.537 471.549,314.537 "/>
    </g>
  </g>
  <g>
  <clipPath id="ID000001">
    <rect x="603.250" y="93.250" width="86.500" height="84.250"/>
  </clipPath>
    <g>
  <g transform="translate(653.460,113.804)">
    <g transform="rotate(-0.0)">
      <text x="0.000" y="0.000" font-family="Helvetica" text-anchor="start" font-size="11.2pt" fill="#000000" >50%</text>
    </g>
  </g>
<g clip-path="url(#ID000001)">
      <polyline fill="none" stroke="#4c4c4c" stroke-width="3.5pt" stroke-dasharray="none" points="610.750,108.750 648.250,108.750 "/>
<g>
</g>
</g>
<g clip-path="url(#ID000001)">
<g>
</g>
</g>
  <g transform="translate(653.460,140.566)">
    <g transform="rotate(-0.0)">
      <text x="0.000" y="0.000" font-family="Helvetica" text-anchor="start" font-size="11.2pt" fill="#000000" >16%</text>
    </g>
  </g>
<g clip-path="url(#ID000001)">
      <polyline fill="none" stroke="#a3a3a3" stroke-width="3.5pt" stroke-dasharray="none" points="610.750,135.375 648.250,135.375 "/>
<g>
</g>
</g>
<g clip-path="url(#ID000001)">
<g>
</g>
</g>
  <g transform="translate(653.460,167.328)">
    <g transform="rotate(-0.0)">
      <text x="0.000" y="0.000" font-family="Helvetica" text-anchor="start" font-size="11.2pt" fill="#000000" >3%</text>
    </g>
  </g>
<g clip-path="url(#ID000001)">
      <polyline fill="none" stroke="#c4c4c4" stroke-width="3.5pt" stroke-dasharray="none" points="610.750,162.000 648.250,162.000 "/>
<g>
</g>
</g>
<g clip-path="url(#ID000001)">
<g>
</g>
</g>
    </g>
  </g>
  <g>
  <clipPath id="ID000002">
    <rect x="786.322" y="90.763" width="223.774" height="223.774"/>
  </clipPath>
      <polyline fill="#ffffff" fill-opacity="1.00" stroke="none" stroke-width="3.5pt" stroke-opacity="1.00" stroke-dasharray="none" points="786.322,314.537 1010.096,314.537 1010.096,90.763 786.322,90.763 "/>
      <polyline fill="#ffffff" fill-opacity="1.00" stroke="none" stroke-width="3.5pt" stroke-opacity="1.00" stroke-dasharray="none" points="786.322,90.763 1010.096,90.763 1010.096,90.763 786.322,90.763 "/>
      <polyline fill="#ffffff" fill-opacity="1.00" stroke="none" stroke-width="3.5pt" stroke-opacity="1.00" stroke-dasharray="none" points="786.322,314.537 786.322,314.537 786.322,90.763 786.322,90.763 "/>
    <g>
<g clip-path="url(#ID000002)">
      <polyline fill="none" stroke="#000000" stroke-width="3.5pt" stroke-dasharray="none" points="801.241,290.691 801.699,290.591 802.171,290.487 802.658,290.376 803.160,290.259 803.677,290.135 804.211,290.003 804.760,289.864 805.327,289.717 805.911,289.560 806.512,289.394 807.133,289.217 807.772,289.029 808.431,288.829 809.110,288.616 809.810,288.389 810.532,288.147 811.276,287.889 812.042,287.613 812.832,287.318 813.647,287.002 814.486,286.665 815.352,286.303 816.243,285.915 817.163,285.499 818.110,285.052 819.087,284.572 820.093,284.056 821.131,283.500 822.200,282.902 823.303,282.258 824.439,281.564 825.610,280.815 826.817,280.006 828.061,279.133 829.343,278.190 830.665,277.171 832.027,276.069 833.431,274.878 834.879,273.588 836.370,272.194 837.908,270.684 839.493,269.051 841.126,267.285 842.810,265.374 844.545,263.309 846.334,261.077 848.178,258.667 850.078,256.067 852.037,253.265 854.056,250.250 856.137,247.010 858.282,243.535 860.492,239.816 862.771,235.846 865.120,231.621 867.541,227.139 870.036,222.403 872.608,217.421 875.259,212.208 877.991,206.786 880.807,201.186 883.710,195.447 886.702,189.623 889.786,183.778 892.965,177.990 896.241,172.352 899.618,166.969 903.099,161.962 906.686,157.463 910.384,153.615 914.196,150.565 918.124,148.462 922.173,147.451 926.347,147.661 930.649,149.204 935.083,152.157 939.653,156.559 944.364,162.400 949.219,169.614 954.224,178.076 959.382,187.600 964.699,197.948 970.179,208.834 975.828,219.941 981.650,230.943 987.651,241.520 993.836,251.388 1000.211,260.312 1006.783,268.127 1013.556,274.744 1020.537,280.152 1027.733,284.410 1035.149,287.631 1042.794,289.969 1050.673,291.591 1058.795,292.665 1067.166,293.340 1075.794,293.742 1084.687,293.969 "/>
<g>
</g>
</g>
<g clip-path="url(#ID000002)">
      <polyline fill="none" stroke="#999999" stroke-width="3.5pt" stroke-dasharray="none" points="801.241,292.940 801.699,292.885 802.171,292.827 802.658,292.766 803.160,292.700 803.677,292.630 804.211,292.555 804.760,292.475 805.327,292.390 805.911,292.299 806.512,292.202 807.133,292.097 807.772,291.986 808.431,291.866 809.110,291.737 809.810,291.599 810.532,291.450 811.276,291.290 812.042,291.118 812.832,290.932 813.647,290.732 814.486,290.516 815.352,290.283 816.243,290.031 817.163,289.759 818.110,289.464 819.087,289.145 820.093,288.800 821.131,288.425 822.200,288.019 823.303,287.579 824.439,287.101 825.610,286.582 826.817,286.019 828.061,285.408 829.343,284.744 830.665,284.023 832.027,283.240 833.431,282.390 834.879,281.467 836.370,280.467 837.908,279.383 839.493,278.208 841.126,276.937 842.810,275.563 844.545,274.081 846.334,272.483 848.178,270.766 850.078,268.922 852.037,266.950 854.056,264.845 856.137,262.606 858.282,260.234 860.492,257.732 862.771,255.106 865.120,252.366 867.541,249.525 870.036,246.602 872.608,243.621 875.259,240.612 877.991,237.610 880.807,234.658 883.710,231.806 886.702,229.109 889.786,226.628 892.965,224.431 896.241,222.586 899.618,221.164 903.099,220.235 906.686,219.863 910.384,220.105 914.196,221.005 918.124,222.591 922.173,224.871 926.347,227.830 930.649,231.428 935.083,235.598 939.653,240.251 944.364,245.272 949.219,250.530 954.224,255.883 959.382,261.187 964.699,266.303 970.179,271.107 975.828,275.497 981.650,279.398 987.651,282.768 993.836,285.596 1000.211,287.897 1006.783,289.712 1013.556,291.098 1020.537,292.122 1027.733,292.852 1035.149,293.355 1042.794,293.688 1050.673,293.901 1058.795,294.031 1067.166,294.107 1075.794,294.150 1084.687,294.173 "/>
<g>
</g>
</g>
<g clip-path="url(#ID000002)">
      <polyline fill="none" stroke="#b7b7b7" stroke-width="3.5pt" stroke-dasharray="none" points="801.241,293.850 801.699,293.833 802.171,293.813 802.658,293.793 803.160,293.771 803.677,293.747 804.211,293.721 804.760,293.693 805.327,293.663 805.911,293.631 806.512,293.596 807.133,293.558 807.772,293.517 808.431,293.472 809.110,293.423 809.810,293.370 810.532,293.312 811.276,293.249 812.042,293.181 812.832,293.106 813.647,293.023 814.486,292.933 815.352,292.835 816.243,292.727 817.163,292.608 818.110,292.477 819.087,292.333 820.093,292.175 821.131,292.001 822.200,291.809 823.303,291.597 824.439,291.364 825.610,291.106 826.817,290.821 828.061,290.508 829.343,290.161 830.665,289.779 832.027,289.358 833.431,288.894 834.879,288.384 836.370,287.824 837.908,287.210 839.493,286.539 841.126,285.806 842.810,285.009 844.545,284.145 846.334,283.213 848.178,282.211 850.078,281.142 852.037,280.006 854.056,278.809 856.137,277.558 858.282,276.261 860.492,274.930 862.771,273.581 865.120,272.230 867.541,270.898 870.036,269.607 872.608,268.381 875.259,267.246 877.991,266.227 880.807,265.350 883.710,264.638 886.702,264.114 889.786,263.797 892.965,263.702 896.241,263.839 899.618,264.216 903.099,264.833 906.686,265.685 910.384,266.761 914.196,268.046 918.124,269.517 922.173,271.149 926.347,272.910 930.649,274.765 935.083,276.678 939.653,278.609 944.364,280.521 949.219,282.375 954.224,284.139 959.382,285.783 964.699,287.284 970.179,288.624 975.828,289.795 981.650,290.793 987.651,291.624 993.836,292.299 1000.211,292.831 1006.783,293.240 1013.556,293.545 1020.537,293.765 1027.733,293.920 1035.149,294.024 1042.794,294.093 1050.673,294.136 1058.795,294.162 1067.166,294.177 1075.794,294.185 1084.687,294.190 "/>
<g>
</g>
</g>
<g clip-path="url(#ID000002)">
<g>
      <polyline fill="none" fill-opacity="1.00" stroke="#000000" stroke-width="3.5pt" stroke-opacity="1.00" stroke-dasharray="none" points="918.173,145.143 926.173,145.143 922.173,150.799 918.173,145.143 "/>
</g>
</g>
<g clip-path="url(#ID000002)">
<g>
      <polyline fill="none" fill-opacity="1.00" stroke="#000000" stroke-width="3.5pt" stroke-opacity="1.00" stroke-dasharray="none" points="902.686,217.555 910.686,217.555 906.686,223.211 902.686,217.555 "/>
</g>
</g>
<g clip-path="url(#ID000002)">
<g>
      <polyline fill="none" fill-opacity="1.00" stroke="#000000" stroke-width="3.5pt" stroke-opacity="1.00" stroke-dasharray="none" points="888.965,261.394 896.965,261.394 892.965,267.050 888.965,261.394 "/>
</g>
</g>
<g clip-path="url(#ID000002)">
      <polyline fill="none" stroke="#000000" stroke-width="3.5pt" stroke-dasharray="none" points="922.173,147.451 906.686,219.863 892.965,263.702 "/>
<g>
</g>
</g>
<g clip-path="url(#ID000002)">
<g>
<circle cx="815.963" cy="285.608" r="3.000" fill="none" stroke="#000000" stroke-width="3.5pt" />
<circle cx="838.172" cy="255.557" r="3.000" fill="none" stroke="#000000" stroke-width="3.5pt" />
<circle cx="864.286" cy="218.481" r="3.000" fill="none" stroke="#000000" stroke-width="3.5pt" />
<circle cx="897.541" cy="189.600" r="3.000" fill="none" stroke="#000000" stroke-width="3.5pt" />
<circle cx="925.420" cy="147.451" r="3.000" fill="none" stroke="#000000" stroke-width="3.5pt" />
<circle cx="950.286" cy="168.525" r="3.000" fill="none" stroke="#000000" stroke-width="3.5pt" />
<circle cx="983.450" cy="262.972" r="3.000" fill="none" stroke="#000000" stroke-width="3.5pt" />
</g>
</g>
<g clip-path="url(#ID000002)">
<g>
<circle cx="816.159" cy="294.194" r="3.000" fill="none" stroke="#000000" stroke-width="3.5pt" />
<circle cx="837.494" cy="279.363" r="3.000" fill="none" stroke="#000000" stroke-width="3.5pt" />
<circle cx="862.762" cy="268.436" r="3.000" fill="none" stroke="#000000" stroke-width="3.5pt" />
<circle cx="897.541" cy="234.091" r="3.000" fill="none" stroke="#000000" stroke-width="3.5pt" />
<circle cx="922.701" cy="220.042" r="3.000" fill="none" stroke="#000000" stroke-width="3.5pt" />
<circle cx="948.143" cy="254.386" r="3.000" fill="none" stroke="#000000" stroke-width="3.5pt" />
<circle cx="986.061" cy="290.291" r="3.000" fill="none" stroke="#000000" stroke-width="3.5pt" />
</g>
</g>
<g clip-path="url(#ID000002)">
<g>
<circle cx="816.356" cy="298.877" r="3.000" fill="none" stroke="#000000" stroke-width="3.5pt" />
<circle cx="837.494" cy="291.072" r="3.000" fill="none" stroke="#000000" stroke-width="3.5pt" />
<circle cx="863.774" cy="278.192" r="3.000" fill="none" stroke="#000000" stroke-width="3.5pt" />
<circle cx="896.087" cy="266.484" r="3.000" fill="none" stroke="#000000" stroke-width="3.5pt" />
<circle cx="921.807" cy="271.558" r="3.000" fill="none" stroke="#000000" stroke-width="3.5pt" />
<circle cx="947.082" cy="285.608" r="3.000" fill="none" stroke="#000000" stroke-width="3.5pt" />
<circle cx="986.061" cy="295.755" r="3.000" fill="none" stroke="#000000" stroke-width="3.5pt" />
</g>
</g>
  <g transform="translate(897.710,367.997)">
    <g transform="rotate(-0.0)">
      <text x="0.000" y="0.000" font-family="Helvetica" text-anchor="middle" font-size="16.0pt" fill="#000000" >Spatial frequency (cpd)</text>
    </g>
  </g>
  <g transform="translate(749.859,202.349)">
    <g transform="rotate(-90.0)">
      <text x="0.000" y="0.000" font-family="Helvetica" text-anchor="middle" font-size="16.0pt" fill="#000000" >Response (Hz)</text>
    </g>
  </g>
  <g transform="translate(897.710,73.560)">
    <g transform="rotate(-0.0)">
      <text x="0.000" y="0.000" font-family="Helvetica" text-anchor="middle" font-size="14.4pt" fill="#000000" >     High SF neuron\newline (Skottun et al. 1986)</text>
    </g>
  </g>
    </g>
    <g>
      <polyline fill="none" stroke="#000000" stroke-width="3.5pt" stroke-dasharray="none" points="860.914,314.537 860.914,312.299 "/>
      <polyline fill="none" stroke="#000000" stroke-width="3.5pt" stroke-dasharray="none" points="935.505,314.537 935.505,312.299 "/>
      <polyline fill="none" stroke="#000000" stroke-width="3.5pt" stroke-dasharray="none" points="786.322,314.537 1010.096,314.537 "/>
  <g transform="translate(786.322,335.012)">
    <g transform="rotate(-0.0)">
      <text x="0.000" y="0.000" font-family="Helvetica" text-anchor="middle" font-size="16.0pt" fill="#000000" >0</text>
    </g>
  </g>
  <g transform="translate(860.914,335.012)">
    <g transform="rotate(-0.0)">
      <text x="0.000" y="0.000" font-family="Helvetica" text-anchor="middle" font-size="16.0pt" fill="#000000" >0.5</text>
    </g>
  </g>
  <g transform="translate(935.505,335.012)">
    <g transform="rotate(-0.0)">
      <text x="0.000" y="0.000" font-family="Helvetica" text-anchor="middle" font-size="16.0pt" fill="#000000" >1</text>
    </g>
  </g>
  <g transform="translate(1010.096,335.012)">
    <g transform="rotate(-0.0)">
      <text x="0.000" y="0.000" font-family="Helvetica" text-anchor="middle" font-size="16.0pt" fill="#000000" >1.5</text>
    </g>
  </g>
      <polyline fill="none" stroke="#000000" stroke-width="3.5pt" stroke-dasharray="none" points="786.322,294.194 789.745,294.194 "/>
      <polyline fill="none" stroke="#000000" stroke-width="3.5pt" stroke-dasharray="none" points="786.322,212.822 789.745,212.822 "/>
      <polyline fill="none" stroke="#000000" stroke-width="3.5pt" stroke-dasharray="none" points="786.322,131.449 789.745,131.449 "/>
      <polyline fill="none" stroke="#000000" stroke-width="3.5pt" stroke-dasharray="none" points="786.322,314.537 786.322,90.763 "/>
  <g transform="translate(781.847,300.194)">
    <g transform="rotate(-0.0)">
      <text x="0.000" y="0.000" font-family="Helvetica" text-anchor="end" font-size="16.0pt" fill="#000000" >0</text>
    </g>
  </g>
  <g transform="translate(781.847,218.822)">
    <g transform="rotate(-0.0)">
      <text x="0.000" y="0.000" font-family="Helvetica" text-anchor="end" font-size="16.0pt" fill="#000000" >20</text>
    </g>
  </g>
  <g transform="translate(781.847,137.449)">
    <g transform="rotate(-0.0)">
      <text x="0.000" y="0.000" font-family="Helvetica" text-anchor="end" font-size="16.0pt" fill="#000000" >40</text>
    </g>
  </g>
      <polyline fill="none" stroke="#000000" stroke-width="3.5pt" stroke-dasharray="none" points="786.322,314.537 786.322,312.299 "/>
      <polyline fill="none" stroke="#000000" stroke-width="3.5pt" stroke-dasharray="none" points="786.322,314.537 786.322,314.537 "/>
    </g>
  </g>
  <g>
  <clipPath id="ID000003">
    <rect x="792.250" y="92.250" width="86.500" height="84.250"/>
  </clipPath>
    <g>
  <g transform="translate(842.460,112.804)">
    <g transform="rotate(-0.0)">
      <text x="0.000" y="0.000" font-family="Helvetica" text-anchor="start" font-size="11.2pt" fill="#000000" >80%</text>
    </g>
  </g>
<g clip-path="url(#ID000003)">
      <polyline fill="none" stroke="#000000" stroke-width="3.5pt" stroke-dasharray="none" points="799.750,107.750 837.250,107.750 "/>
<g>
</g>
</g>
<g clip-path="url(#ID000003)">
<g>
</g>
</g>
  <g transform="translate(842.460,139.566)">
    <g transform="rotate(-0.0)">
      <text x="0.000" y="0.000" font-family="Helvetica" text-anchor="start" font-size="11.2pt" fill="#000000" >20%</text>
    </g>
  </g>
<g clip-path="url(#ID000003)">
      <polyline fill="none" stroke="#999999" stroke-width="3.5pt" stroke-dasharray="none" points="799.750,134.375 837.250,134.375 "/>
<g>
</g>
</g>
<g clip-path="url(#ID000003)">
<g>
</g>
</g>
  <g transform="translate(842.460,166.328)">
    <g transform="rotate(-0.0)">
      <text x="0.000" y="0.000" font-family="Helvetica" text-anchor="start" font-size="11.2pt" fill="#000000" >8%</text>
    </g>
  </g>
<g clip-path="url(#ID000003)">
      <polyline fill="none" stroke="#b7b7b7" stroke-width="3.5pt" stroke-dasharray="none" points="799.750,161.000 837.250,161.000 "/>
<g>
</g>
</g>
<g clip-path="url(#ID000003)">
<g>
</g>
</g>
    </g>
  </g>
</svg>
