<?xml version="1.0" standalone="no"?><!DOCTYPE svg PUBLIC "-//W3C//DTD SVG 1.1//EN" "http://www.w3.org/Graphics/SVG/1.1/DTD/svg11.dtd">
<svg preserveAspectRatio="xMinYMin meet" width="100%" height="100%" viewBox="0 0 840.000 420.000"   version="1.1" xmlns="http://www.w3.org/2000/svg" xmlns:xlink="http://www.w3.org/1999/xlink">
  <desc>Matlab Figure Converted by PLOT2SVG written by Juerg Schwizer</desc>
  <rect x="0" y="0" width="840.000" height="420.000" fill="#ffffff" stroke="none" />
  <g>
  <clipPath id="ID000000">
    <rect x="561.172" y="60.000" width="124.966" height="313.800"/>
  </clipPath>
      <polyline fill="#ffffff" fill-opacity="1.00" stroke="none" stroke-width="3.5pt" stroke-opacity="1.00" stroke-dasharray="none" points="561.172,373.800 686.137,373.800 686.137,60.000 561.172,60.000 "/>
      <polyline fill="#ffffff" fill-opacity="1.00" stroke="none" stroke-width="3.5pt" stroke-opacity="1.00" stroke-dasharray="none" points="561.172,373.800 686.137,373.800 686.137,373.800 561.172,373.800 "/>
      <polyline fill="#ffffff" fill-opacity="1.00" stroke="none" stroke-width="3.5pt" stroke-opacity="1.00" stroke-dasharray="none" points="561.172,373.800 561.172,373.800 561.172,60.000 561.172,60.000 "/>
    <g>
<g clip-path="url(#ID000000)">
      <polyline fill="none" stroke="#000000" stroke-width="3.5pt" stroke-dasharray="none" points="561.172,-148.657 561.172,-148.657 "/>
<g>
<circle cx="561.172" cy="-148.657" r="3.000" fill="none" stroke="#000000" stroke-width="3.5pt" />
<circle cx="561.172" cy="-148.657" r="3.000" fill="none" stroke="#000000" stroke-width="3.5pt" />
</g>
</g>
<g clip-path="url(#ID000000)">
      <polyline fill="none" stroke="#7f7f7f" stroke-width="3.5pt" stroke-dasharray="none" points="561.172,-148.657 561.172,-148.657 "/>
<g>
<circle cx="561.172" cy="-148.657" r="3.000" fill="none" stroke="#7f7f7f" stroke-width="3.5pt" />
<circle cx="561.172" cy="-148.657" r="3.000" fill="none" stroke="#7f7f7f" stroke-width="3.5pt" />
</g>
</g>
<g clip-path="url(#ID000000)">
<g>
<circle cx="610.901" cy="250.162" r="3.000" fill="none" stroke="#000000" stroke-width="3.5pt" />
<circle cx="622.575" cy="200.774" r="3.000" fill="none" stroke="#000000" stroke-width="3.5pt" />
<circle cx="636.409" cy="177.380" r="3.000" fill="none" stroke="#000000" stroke-width="3.5pt" />
<circle cx="648.519" cy="126.259" r="3.000" fill="none" stroke="#000000" stroke-width="3.5pt" />
<circle cx="661.062" cy="118.461" r="3.000" fill="none" stroke="#000000" stroke-width="3.5pt" />
<circle cx="674.027" cy="126.259" r="3.000" fill="none" stroke="#000000" stroke-width="3.5pt" />
<circle cx="686.137" cy="92.468" r="3.000" fill="none" stroke="#000000" stroke-width="3.5pt" />
</g>
</g>
<g clip-path="url(#ID000000)">
<g>
<circle cx="610.901" cy="372.332" r="3.000" fill="none" stroke="#7f7f7f" stroke-width="3.5pt" />
<circle cx="622.575" cy="284.820" r="3.000" fill="none" stroke="#7f7f7f" stroke-width="3.5pt" />
<circle cx="636.409" cy="230.234" r="3.000" fill="none" stroke="#7f7f7f" stroke-width="3.5pt" />
<circle cx="648.519" cy="200.774" r="3.000" fill="none" stroke="#7f7f7f" stroke-width="3.5pt" />
<circle cx="661.062" cy="183.445" r="3.000" fill="none" stroke="#7f7f7f" stroke-width="3.5pt" />
<circle cx="674.027" cy="143.588" r="3.000" fill="none" stroke="#7f7f7f" stroke-width="3.5pt" />
<circle cx="686.137" cy="150.520" r="3.000" fill="none" stroke="#7f7f7f" stroke-width="3.5pt" />
</g>
</g>
<g clip-path="url(#ID000000)">
      <polyline fill="none" stroke="#000000" stroke-width="3.5pt" stroke-dasharray="none" points="561.172,501.454 562.434,495.321 563.696,489.194 564.958,483.073 566.221,476.958 567.483,470.849 568.745,464.748 570.008,458.655 571.270,452.569 572.532,446.492 573.794,440.425 575.057,434.367 576.319,428.320 577.581,422.284 578.844,416.259 580.106,410.248 581.368,404.249 582.630,398.265 583.893,392.297 585.155,386.344 586.417,380.408 587.680,374.491 588.942,368.593 590.204,362.715 591.466,356.859 592.729,351.027 593.991,345.218 595.253,339.436 596.516,333.681 597.778,327.955 599.040,322.260 600.302,316.597 601.565,310.969 602.827,305.376 604.089,299.822 605.351,294.308 606.614,288.836 607.876,283.408 609.138,278.028 610.401,272.696 611.663,267.415 612.925,262.189 614.187,257.019 615.450,251.907 616.712,246.858 617.974,241.872 619.237,236.952 620.499,232.102 621.761,227.324 623.023,222.621 624.286,217.994 625.548,213.448 626.810,208.983 628.073,204.603 629.335,200.309 630.597,196.105 631.859,191.992 633.122,187.972 634.384,184.047 635.646,180.218 636.908,176.488 638.171,172.857 639.433,169.327 640.695,165.898 641.958,162.572 643.220,159.348 644.482,156.227 645.744,153.209 647.007,150.294 648.269,147.481 649.531,144.770 650.794,142.159 652.056,139.649 653.318,137.237 654.580,134.922 655.843,132.702 657.105,130.576 658.367,128.542 659.630,126.598 660.892,124.740 662.154,122.968 663.416,121.279 664.679,119.670 665.941,118.139 667.203,116.683 668.466,115.300 669.728,113.986 670.990,112.740 672.252,111.559 673.515,110.440 674.777,109.380 676.039,108.377 677.301,107.429 678.564,106.533 679.826,105.686 681.088,104.887 682.351,104.133 683.613,103.422 684.875,102.751 686.137,102.119 "/>
<g>
</g>
</g>
<g clip-path="url(#ID000000)">
      <polyline fill="none" stroke="#7f7f7f" stroke-width="3.5pt" stroke-dasharray="none" points="561.172,549.310 562.434,543.175 563.696,537.045 564.958,530.921 566.221,524.803 567.483,518.692 568.745,512.588 570.008,506.491 571.270,500.402 572.532,494.321 573.794,488.249 575.057,482.187 576.319,476.135 577.581,470.094 578.844,464.064 580.106,458.047 581.368,452.042 582.630,446.052 583.893,440.076 585.155,434.116 586.417,428.173 587.680,422.247 588.942,416.340 590.204,410.454 591.466,404.588 592.729,398.745 593.991,392.926 595.253,387.131 596.516,381.364 597.778,375.625 599.040,369.916 600.302,364.239 601.565,358.595 602.827,352.986 604.089,347.414 605.351,341.882 606.614,336.391 607.876,330.943 609.138,325.542 610.401,320.188 611.663,314.884 612.925,309.633 614.187,304.438 615.450,299.300 616.712,294.222 617.974,289.208 619.237,284.259 620.499,279.378 621.761,274.567 623.023,269.830 624.286,265.169 625.548,260.586 626.810,256.085 628.073,251.667 629.335,247.334 630.597,243.090 631.859,238.936 633.122,234.875 634.384,230.907 635.646,227.035 636.908,223.261 638.171,219.586 639.433,216.011 640.695,212.537 641.958,209.165 643.220,205.896 644.482,202.729 645.744,199.665 647.007,196.704 648.269,193.846 649.531,191.089 650.794,188.434 652.056,185.879 653.318,183.424 654.580,181.066 655.843,178.804 657.105,176.637 658.367,174.562 659.630,172.578 660.892,170.682 662.154,168.872 663.416,167.147 664.679,165.502 665.941,163.937 667.203,162.448 668.466,161.032 669.728,159.688 670.990,158.412 672.252,157.202 673.515,156.056 674.777,154.970 676.039,153.942 677.301,152.970 678.564,152.051 679.826,151.183 681.088,150.363 682.351,149.589 683.613,148.859 684.875,148.170 686.137,147.521 "/>
<g>
</g>
</g>
  <g transform="translate(623.197,439.776)">
    <g transform="rotate(-0.0)">
      <text x="0.000" y="0.000" font-family="Helvetica" text-anchor="middle" font-size="17.6pt" fill="#000000" >Contrast (%)</text>
    </g>
  </g>
  <g transform="translate(542.633,216.595)">
    <g transform="rotate(-90.0)">
      <text x="0.000" y="0.000" font-family="Helvetica" text-anchor="middle" font-size="17.6pt" fill="#000000" >Response (Hz)</text>
    </g>
  </g>
  <g transform="translate(623.655,38.590)">
    <g transform="rotate(-0.0)">
      <text x="0.000" y="0.000" font-family="Helvetica" text-anchor="middle" font-size="14.4pt" fill="#000000" >Example Macaque V1 Neuron\newline       (Carandini et al. 1997)</text>
    </g>
  </g>
    </g>
    <g>
      <polyline fill="none" stroke="#000000" stroke-width="3.5pt" stroke-dasharray="none" points="598.790,373.800 598.790,370.662 "/>
      <polyline fill="none" stroke="#000000" stroke-width="3.5pt" stroke-dasharray="none" points="636.409,373.800 636.409,370.662 "/>
      <polyline fill="none" stroke="#000000" stroke-width="3.5pt" stroke-dasharray="none" points="658.414,373.800 658.414,370.662 "/>
      <polyline fill="none" stroke="#000000" stroke-width="3.5pt" stroke-dasharray="none" points="561.172,373.800 686.137,373.800 "/>
  <g transform="translate(561.172,406.476)">
    <g transform="rotate(-0.0)">
      <text x="0.000" y="0.000" font-family="Helvetica" text-anchor="middle" font-size="17.6pt" fill="#000000" >10<tspan font-size="13.2pt" dy="-13.2pt">10</tspan></text>
    </g>
  </g>
  <g transform="translate(598.790,406.476)">
    <g transform="rotate(-0.0)">
      <text x="0.000" y="0.000" font-family="Helvetica" text-anchor="middle" font-size="17.6pt" fill="#000000" >10<tspan font-size="13.2pt" dy="-13.2pt">20</tspan></text>
    </g>
  </g>
  <g transform="translate(636.409,406.476)">
    <g transform="rotate(-0.0)">
      <text x="0.000" y="0.000" font-family="Helvetica" text-anchor="middle" font-size="17.6pt" fill="#000000" >10<tspan font-size="13.2pt" dy="-13.2pt">40</tspan></text>
    </g>
  </g>
  <g transform="translate(658.414,406.476)">
    <g transform="rotate(-0.0)">
      <text x="0.000" y="0.000" font-family="Helvetica" text-anchor="middle" font-size="17.6pt" fill="#000000" >10<tspan font-size="13.2pt" dy="-13.2pt">60</tspan></text>
    </g>
  </g>
  <g transform="translate(686.137,406.476)">
    <g transform="rotate(-0.0)">
      <text x="0.000" y="0.000" font-family="Helvetica" text-anchor="middle" font-size="17.6pt" fill="#000000" >10<tspan font-size="13.2pt" dy="-13.2pt">100</tspan></text>
    </g>
  </g>
      <polyline fill="none" stroke="#000000" stroke-width="3.5pt" stroke-dasharray="none" points="561.172,368.991 562.608,368.991 "/>
      <polyline fill="none" stroke="#000000" stroke-width="3.5pt" stroke-dasharray="none" points="561.172,283.087 562.608,283.087 "/>
      <polyline fill="none" stroke="#000000" stroke-width="3.5pt" stroke-dasharray="none" points="561.172,218.103 562.608,218.103 "/>
      <polyline fill="none" stroke="#000000" stroke-width="3.5pt" stroke-dasharray="none" points="561.172,153.119 562.608,153.119 "/>
      <polyline fill="none" stroke="#000000" stroke-width="3.5pt" stroke-dasharray="none" points="561.172,88.135 562.608,88.135 "/>
      <polyline fill="none" stroke="#000000" stroke-width="3.5pt" stroke-dasharray="none" points="561.172,373.800 561.172,60.000 "/>
  <g transform="translate(558.672,384.391)">
    <g transform="rotate(-0.0)">
      <text x="0.000" y="0.000" font-family="Helvetica" text-anchor="end" font-size="17.6pt" fill="#000000" >10<tspan font-size="13.2pt" dy="-13.2pt">2</tspan></text>
    </g>
  </g>
  <g transform="translate(558.672,298.487)">
    <g transform="rotate(-0.0)">
      <text x="0.000" y="0.000" font-family="Helvetica" text-anchor="end" font-size="17.6pt" fill="#000000" >10<tspan font-size="13.2pt" dy="-13.2pt">5</tspan></text>
    </g>
  </g>
  <g transform="translate(558.672,233.503)">
    <g transform="rotate(-0.0)">
      <text x="0.000" y="0.000" font-family="Helvetica" text-anchor="end" font-size="17.6pt" fill="#000000" >10<tspan font-size="13.2pt" dy="-13.2pt">10</tspan></text>
    </g>
  </g>
  <g transform="translate(558.672,168.519)">
    <g transform="rotate(-0.0)">
      <text x="0.000" y="0.000" font-family="Helvetica" text-anchor="end" font-size="17.6pt" fill="#000000" >10<tspan font-size="13.2pt" dy="-13.2pt">20</tspan></text>
    </g>
  </g>
  <g transform="translate(558.672,103.535)">
    <g transform="rotate(-0.0)">
      <text x="0.000" y="0.000" font-family="Helvetica" text-anchor="end" font-size="17.6pt" fill="#000000" >10<tspan font-size="13.2pt" dy="-13.2pt">40</tspan></text>
    </g>
  </g>
      <polyline fill="none" stroke="#000000" stroke-width="3.5pt" stroke-dasharray="none" points="561.172,373.800 561.172,370.662 "/>
      <polyline fill="none" stroke="#000000" stroke-width="3.5pt" stroke-dasharray="none" points="561.172,373.800 561.172,373.800 "/>
    </g>
  </g>
  <g>
  <clipPath id="ID000001">
    <rect x="493.250" y="82.250" width="107.500" height="57.625"/>
  </clipPath>
    <g>
  <g transform="translate(542.521,102.843)">
    <g transform="rotate(-0.0)">
      <text x="0.000" y="0.000" font-family="Helvetica" text-anchor="start" font-size="11.2pt" fill="#000000" >1.4 cpd</text>
    </g>
  </g>
<g clip-path="url(#ID000001)">
      <polyline fill="none" stroke="#000000" stroke-width="3.5pt" stroke-dasharray="none" points="500.750,97.750 538.250,97.750 "/>
<g>
</g>
</g>
<g clip-path="url(#ID000001)">
<g>
<circle cx="519.500" cy="97.750" r="3.000" fill="none" stroke="#000000" stroke-width="3.5pt" />
</g>
</g>
  <g transform="translate(542.521,129.669)">
    <g transform="rotate(-0.0)">
      <text x="0.000" y="0.000" font-family="Helvetica" text-anchor="start" font-size="11.2pt" fill="#000000" >1.1 cpd</text>
    </g>
  </g>
<g clip-path="url(#ID000001)">
      <polyline fill="none" stroke="#7f7f7f" stroke-width="3.5pt" stroke-dasharray="none" points="500.750,124.375 538.250,124.375 "/>
<g>
</g>
</g>
<g clip-path="url(#ID000001)">
<g>
<circle cx="519.500" cy="124.375" r="3.000" fill="none" stroke="#7f7f7f" stroke-width="3.5pt" />
</g>
</g>
    </g>
  </g>
</svg>
