<?xml version="1.0" standalone="no"?><!DOCTYPE svg PUBLIC "-//W3C//DTD SVG 1.1//EN" "http://www.w3.org/Graphics/SVG/1.1/DTD/svg11.dtd">
<svg preserveAspectRatio="xMinYMin meet" width="100%" height="100%" viewBox="0 0 1430.000 504.000"   version="1.1" xmlns="http://www.w3.org/2000/svg" xmlns:xlink="http://www.w3.org/1999/xlink">
  <desc>Matlab Figure Converted by PLOT2SVG written by Juerg Schwizer</desc>
  <rect x="0" y="0" width="1430.000" height="504.000" fill="#ffffff" stroke="none" />
  <g>
  <clipPath id="ID000000">
    <rect x="216.770" y="37.919" width="162.267" height="162.267"/>
  </clipPath>
      <polyline fill="#ffffff" fill-opacity="1.00" stroke="none" stroke-width="3.5pt" stroke-opacity="1.00" stroke-dasharray="none" points="216.770,200.186 379.038,200.186 379.038,37.919 216.770,37.919 "/>
      <polyline fill="#ffffff" fill-opacity="1.00" stroke="none" stroke-width="3.5pt" stroke-opacity="1.00" stroke-dasharray="none" points="216.770,37.919 379.038,37.919 379.038,37.919 216.770,37.919 "/>
      <polyline fill="#ffffff" fill-opacity="1.00" stroke="none" stroke-width="3.5pt" stroke-opacity="1.00" stroke-dasharray="none" points="216.770,200.186 216.770,200.186 216.770,37.919 216.770,37.919 "/>
    <g>
<g clip-path="url(#ID000000)">
      <polyline fill="none" stroke="#00ff00" stroke-width="3.5pt" stroke-dasharray="none" points="231.522,180.770 232.107,183.622 232.705,185.817 233.314,187.559 233.935,188.974 234.569,190.146 235.215,191.133 235.874,191.974 236.546,192.700 237.231,193.332 237.930,193.887 238.643,194.379 239.370,194.818 240.111,195.211 240.867,195.565 241.639,195.885 242.425,196.177 243.227,196.443 244.045,196.687 244.879,196.911 245.730,197.117 246.598,197.308 247.483,197.485 248.385,197.650 249.306,197.802 250.244,197.945 251.202,198.078 252.178,198.203 253.173,198.320 254.189,198.429 255.224,198.532 256.281,198.629 257.358,198.721 258.456,198.807 259.577,198.888 260.719,198.965 261.884,199.037 263.073,199.106 264.285,199.171 265.520,199.233 266.781,199.291 268.067,199.346 269.378,199.399 270.715,199.449 272.078,199.496 273.469,199.541 274.887,199.583 276.334,199.624 277.809,199.662 279.313,199.699 280.848,199.733 282.412,199.766 284.008,199.797 285.636,199.827 287.296,199.855 288.988,199.881 290.715,199.906 292.475,199.930 294.271,199.952 296.102,199.973 297.970,199.993 299.874,200.012 301.817,200.029 303.798,200.046 305.818,200.061 307.878,200.076 309.980,200.089 312.123,200.102 314.308,200.113 316.537,200.124 318.811,200.133 321.129,200.142 323.493,200.150 325.905,200.157 328.364,200.163 330.872,200.169 333.429,200.174 336.038,200.177 338.698,200.181 341.411,200.183 344.178,200.185 347.000,200.186 349.878,200.186 352.813,200.186 355.806,200.186 358.859,200.186 361.972,200.186 365.147,200.186 368.386,200.186 371.688,200.186 375.056,200.186 378.491,200.186 381.994,200.186 385.566,200.186 389.210,200.186 392.925,200.186 396.715,200.186 400.580,200.186 404.521,200.186 408.541,200.186 "/>
<g>
</g>
</g>
<g clip-path="url(#ID000000)">
      <polyline fill="none" stroke="#007f00" stroke-width="3.5pt" stroke-dasharray="none" points="231.522,64.963 232.107,84.825 232.705,100.115 233.314,112.246 233.935,122.101 234.569,130.264 235.215,137.134 235.874,142.993 236.546,148.047 237.231,152.451 237.930,156.320 238.643,159.746 239.370,162.798 240.111,165.535 240.867,168.001 241.639,170.234 242.425,172.264 243.227,174.118 244.045,175.816 244.879,177.377 245.730,178.815 246.598,180.145 247.483,181.377 248.385,182.521 249.306,183.586 250.244,184.579 251.202,185.507 252.178,186.375 253.173,187.188 254.189,187.952 255.224,188.669 256.281,189.345 257.358,189.980 258.456,190.580 259.577,191.146 260.719,191.681 261.884,192.186 263.073,192.665 264.285,193.117 265.520,193.546 266.781,193.953 268.067,194.338 269.378,194.704 270.715,195.050 272.078,195.380 273.469,195.692 274.887,195.989 276.334,196.270 277.809,196.538 279.313,196.791 280.848,197.032 282.412,197.261 284.008,197.477 285.636,197.683 287.296,197.877 288.988,198.062 290.715,198.236 292.475,198.401 294.271,198.557 296.102,198.704 297.970,198.843 299.874,198.973 301.817,199.096 303.798,199.210 305.818,199.318 307.878,199.418 309.980,199.511 312.123,199.598 314.308,199.678 316.537,199.751 318.811,199.818 321.129,199.880 323.493,199.935 325.905,199.984 328.364,200.028 330.872,200.066 333.429,200.099 336.038,200.126 338.698,200.149 341.411,200.165 344.178,200.177 347.000,200.184 349.878,200.186 352.813,200.186 355.806,200.186 358.859,200.186 361.972,200.186 365.147,200.186 368.386,200.186 371.688,200.186 375.056,200.186 378.491,200.186 381.994,200.186 385.566,200.186 389.210,200.186 392.925,200.186 396.715,200.186 400.580,200.186 404.521,200.186 408.541,200.186 "/>
<g>
</g>
</g>
  <g transform="translate(297.403,33.190)">
    <g transform="rotate(-0.0)">
      <text x="0.000" y="0.000" font-family="Helvetica" text-anchor="middle" font-size="12.8pt" fill="#000000" >Low SF cell</text>
    </g>
  </g>
    </g>
    <g>
      <polyline fill="none" stroke="#000000" stroke-width="3.5pt" stroke-dasharray="none" points="231.522,200.186 231.522,197.946 "/>
      <polyline fill="none" stroke="#000000" stroke-width="3.5pt" stroke-dasharray="none" points="290.528,200.186 290.528,197.946 "/>
      <polyline fill="none" stroke="#000000" stroke-width="3.5pt" stroke-dasharray="none" points="349.535,200.186 349.535,197.946 "/>
      <polyline fill="none" stroke="#000000" stroke-width="3.5pt" stroke-dasharray="none" points="216.770,200.186 379.038,200.186 "/>
  <g transform="translate(231.522,221.031)">
    <g transform="rotate(-0.0)">
      <text x="0.000" y="0.000" font-family="Helvetica" text-anchor="middle" font-size="17.6pt" fill="#000000" >0.1</text>
    </g>
  </g>
  <g transform="translate(290.528,221.031)">
    <g transform="rotate(-0.0)">
      <text x="0.000" y="0.000" font-family="Helvetica" text-anchor="middle" font-size="17.6pt" fill="#000000" >0.3</text>
    </g>
  </g>
  <g transform="translate(349.535,221.031)">
    <g transform="rotate(-0.0)">
      <text x="0.000" y="0.000" font-family="Helvetica" text-anchor="middle" font-size="17.6pt" fill="#000000" >0.5</text>
    </g>
  </g>
      <polyline fill="none" stroke="#000000" stroke-width="3.5pt" stroke-dasharray="none" points="216.770,64.963 218.393,64.963 "/>
      <polyline fill="none" stroke="#000000" stroke-width="3.5pt" stroke-dasharray="none" points="216.770,200.186 216.770,37.919 "/>
  <g transform="translate(213.525,206.786)">
    <g transform="rotate(-0.0)">
      <text x="0.000" y="0.000" font-family="Helvetica" text-anchor="end" font-size="17.6pt" fill="#000000" >0</text>
    </g>
  </g>
  <g transform="translate(213.525,71.563)">
    <g transform="rotate(-0.0)">
      <text x="0.000" y="0.000" font-family="Helvetica" text-anchor="end" font-size="17.6pt" fill="#000000" >1</text>
    </g>
  </g>
      <polyline fill="none" stroke="#000000" stroke-width="3.5pt" stroke-dasharray="none" points="216.770,200.186 216.770,198.563 "/>
      <polyline fill="none" stroke="#000000" stroke-width="3.5pt" stroke-dasharray="none" points="216.770,200.186 216.770,200.186 "/>
    </g>
  </g>
  <g>
  <clipPath id="ID000001">
    <rect x="278.250" y="40.250" width="95.500" height="57.625"/>
  </clipPath>
    <g>
  <g transform="translate(328.487,60.843)">
    <g transform="rotate(-0.0)">
      <text x="0.000" y="0.000" font-family="Helvetica" text-anchor="start" font-size="11.2pt" fill="#000000" >50%</text>
    </g>
  </g>
<g clip-path="url(#ID000001)">
      <polyline fill="none" stroke="#00ff00" stroke-width="3.5pt" stroke-dasharray="none" points="285.750,55.750 323.250,55.750 "/>
<g>
</g>
</g>
<g clip-path="url(#ID000001)">
<g>
</g>
</g>
  <g transform="translate(328.487,87.669)">
    <g transform="rotate(-0.0)">
      <text x="0.000" y="0.000" font-family="Helvetica" text-anchor="start" font-size="11.2pt" fill="#000000" >100%</text>
    </g>
  </g>
<g clip-path="url(#ID000001)">
      <polyline fill="none" stroke="#007f00" stroke-width="3.5pt" stroke-dasharray="none" points="285.750,82.375 323.250,82.375 "/>
<g>
</g>
</g>
<g clip-path="url(#ID000001)">
<g>
</g>
</g>
    </g>
  </g>
  <g>
  <clipPath id="ID000002">
    <rect x="216.770" y="276.733" width="162.267" height="162.267"/>
  </clipPath>
      <polyline fill="#ffffff" fill-opacity="1.00" stroke="none" stroke-width="3.5pt" stroke-opacity="1.00" stroke-dasharray="none" points="216.770,439.000 379.038,439.000 379.038,276.733 216.770,276.733 "/>
      <polyline fill="#ffffff" fill-opacity="1.00" stroke="none" stroke-width="3.5pt" stroke-opacity="1.00" stroke-dasharray="none" points="216.770,276.733 379.038,276.733 379.038,276.733 216.770,276.733 "/>
      <polyline fill="#ffffff" fill-opacity="1.00" stroke="none" stroke-width="3.5pt" stroke-opacity="1.00" stroke-dasharray="none" points="216.770,439.000 216.770,439.000 216.770,276.733 216.770,276.733 "/>
    <g>
<g clip-path="url(#ID000002)">
      <polyline fill="none" stroke="#ff0000" stroke-width="3.5pt" stroke-dasharray="none" points="231.522,419.584 232.107,419.670 232.705,419.759 233.314,419.852 233.935,419.948 234.569,420.047 235.215,420.149 235.874,420.255 236.546,420.365 237.231,420.478 237.930,420.595 238.643,420.716 239.370,420.842 240.111,420.971 240.867,421.104 241.639,421.242 242.425,421.384 243.227,421.531 244.045,421.682 244.879,421.838 245.730,421.998 246.598,422.164 247.483,422.334 248.385,422.509 249.306,422.690 250.244,422.875 251.202,423.066 252.178,423.262 253.173,423.464 254.189,423.670 255.224,423.882 256.281,424.100 257.358,424.323 258.456,424.551 259.577,424.785 260.719,425.024 261.884,425.268 263.073,425.517 264.285,425.772 265.520,426.032 266.781,426.297 268.067,426.567 269.378,426.841 270.715,427.120 272.078,427.404 273.469,427.692 274.887,427.983 276.334,428.279 277.809,428.577 279.313,428.879 280.848,429.184 282.412,429.491 284.008,429.801 285.636,430.112 287.296,430.424 288.988,430.738 290.715,431.051 292.475,431.365 294.271,431.678 296.102,431.990 297.970,432.301 299.874,432.609 301.817,432.915 303.798,433.217 305.818,433.516 307.878,433.810 309.980,434.099 312.123,434.383 314.308,434.661 316.537,434.932 318.811,435.196 321.129,435.453 323.493,435.701 325.905,435.941 328.364,436.172 330.872,436.394 333.429,436.606 336.038,436.809 338.698,437.001 341.411,437.183 344.178,437.355 347.000,437.517 349.878,437.668 352.813,437.809 355.806,437.940 358.859,438.061 361.972,438.172 365.147,438.274 368.386,438.366 371.688,438.450 375.056,438.525 378.491,438.593 381.994,438.653 385.566,438.706 389.210,438.752 392.925,438.793 396.715,438.828 400.580,438.859 404.521,438.884 408.541,438.906 "/>
<g>
</g>
</g>
<g clip-path="url(#ID000002)">
      <polyline fill="none" stroke="#7f0000" stroke-width="3.5pt" stroke-dasharray="none" points="231.522,303.777 232.107,304.378 232.705,305.001 233.314,305.645 233.935,306.312 234.569,307.002 235.215,307.715 235.874,308.454 236.546,309.217 237.231,310.007 237.930,310.823 238.643,311.666 239.370,312.537 240.111,313.437 240.867,314.366 241.639,315.325 242.425,316.314 243.227,317.335 244.045,318.388 244.879,319.474 245.730,320.592 246.598,321.744 247.483,322.931 248.385,324.152 249.306,325.409 250.244,326.702 251.202,328.030 252.178,329.396 253.173,330.798 254.189,332.237 255.224,333.714 256.281,335.229 257.358,336.781 258.456,338.370 259.577,339.998 260.719,341.662 261.884,343.364 263.073,345.102 264.285,346.876 265.520,348.686 266.781,350.531 268.067,352.410 269.378,354.322 270.715,356.265 272.078,358.240 273.469,360.243 274.887,362.274 276.334,364.331 277.809,366.412 279.313,368.515 280.848,370.638 282.412,372.778 284.008,374.933 285.636,377.099 287.296,379.275 288.988,381.457 290.715,383.642 292.475,385.827 294.271,388.008 296.102,390.181 297.970,392.343 299.874,394.491 301.817,396.620 303.798,398.726 305.818,400.805 307.878,402.854 309.980,404.869 312.123,406.846 314.308,408.780 316.537,410.669 318.811,412.508 321.129,414.294 323.493,416.025 325.905,417.696 328.364,419.305 330.872,420.850 333.429,422.329 336.038,423.739 338.698,425.079 341.411,426.349 344.178,427.546 347.000,428.672 349.878,429.725 352.813,430.707 355.806,431.618 358.859,432.460 361.972,433.233 365.147,433.941 368.386,434.585 371.688,435.168 375.056,435.693 378.491,436.163 381.994,436.581 385.566,436.951 389.210,437.275 392.925,437.558 396.715,437.804 400.580,438.015 404.521,438.195 408.541,438.347 "/>
<g>
</g>
</g>
  <g transform="translate(297.403,272.004)">
    <g transform="rotate(-0.0)">
      <text x="0.000" y="0.000" font-family="Helvetica" text-anchor="middle" font-size="12.8pt" fill="#000000" >High SF cell</text>
    </g>
  </g>
  <g transform="translate(297.403,497.972)">
    <g transform="rotate(-0.0)">
      <text x="0.000" y="0.000" font-family="Helvetica" text-anchor="middle" font-size="17.6pt" fill="#000000" >Spatial frequency</text>
    </g>
  </g>
  <g transform="translate(191.228,358.489)">
    <g transform="rotate(-90.0)">
      <text x="0.000" y="0.000" font-family="Helvetica" text-anchor="middle" font-size="17.6pt" fill="#000000" >                                   Unnormalized response, A_i</text>
    </g>
  </g>
    </g>
    <g>
      <polyline fill="none" stroke="#000000" stroke-width="3.5pt" stroke-dasharray="none" points="231.522,439.000 231.522,436.760 "/>
      <polyline fill="none" stroke="#000000" stroke-width="3.5pt" stroke-dasharray="none" points="290.528,439.000 290.528,436.760 "/>
      <polyline fill="none" stroke="#000000" stroke-width="3.5pt" stroke-dasharray="none" points="349.535,439.000 349.535,436.760 "/>
      <polyline fill="none" stroke="#000000" stroke-width="3.5pt" stroke-dasharray="none" points="216.770,439.000 379.038,439.000 "/>
  <g transform="translate(231.522,459.845)">
    <g transform="rotate(-0.0)">
      <text x="0.000" y="0.000" font-family="Helvetica" text-anchor="middle" font-size="17.6pt" fill="#000000" >0.1</text>
    </g>
  </g>
  <g transform="translate(290.528,459.845)">
    <g transform="rotate(-0.0)">
      <text x="0.000" y="0.000" font-family="Helvetica" text-anchor="middle" font-size="17.6pt" fill="#000000" >0.3</text>
    </g>
  </g>
  <g transform="translate(349.535,459.845)">
    <g transform="rotate(-0.0)">
      <text x="0.000" y="0.000" font-family="Helvetica" text-anchor="middle" font-size="17.6pt" fill="#000000" >0.5</text>
    </g>
  </g>
      <polyline fill="none" stroke="#000000" stroke-width="3.5pt" stroke-dasharray="none" points="216.770,303.777 218.393,303.777 "/>
      <polyline fill="none" stroke="#000000" stroke-width="3.5pt" stroke-dasharray="none" points="216.770,439.000 216.770,276.733 "/>
  <g transform="translate(213.525,445.600)">
    <g transform="rotate(-0.0)">
      <text x="0.000" y="0.000" font-family="Helvetica" text-anchor="end" font-size="17.6pt" fill="#000000" >0</text>
    </g>
  </g>
  <g transform="translate(213.525,310.377)">
    <g transform="rotate(-0.0)">
      <text x="0.000" y="0.000" font-family="Helvetica" text-anchor="end" font-size="17.6pt" fill="#000000" >1</text>
    </g>
  </g>
      <polyline fill="none" stroke="#000000" stroke-width="3.5pt" stroke-dasharray="none" points="216.770,439.000 216.770,437.377 "/>
      <polyline fill="none" stroke="#000000" stroke-width="3.5pt" stroke-dasharray="none" points="216.770,439.000 216.770,439.000 "/>
    </g>
  </g>
  <g>
  <clipPath id="ID000003">
    <rect x="278.250" y="279.250" width="95.500" height="57.625"/>
  </clipPath>
    <g>
  <g transform="translate(328.487,299.843)">
    <g transform="rotate(-0.0)">
      <text x="0.000" y="0.000" font-family="Helvetica" text-anchor="start" font-size="11.2pt" fill="#000000" >50%</text>
    </g>
  </g>
<g clip-path="url(#ID000003)">
      <polyline fill="none" stroke="#ff0000" stroke-width="3.5pt" stroke-dasharray="none" points="285.750,294.750 323.250,294.750 "/>
<g>
</g>
</g>
<g clip-path="url(#ID000003)">
<g>
</g>
</g>
  <g transform="translate(328.487,326.669)">
    <g transform="rotate(-0.0)">
      <text x="0.000" y="0.000" font-family="Helvetica" text-anchor="start" font-size="11.2pt" fill="#000000" >100%</text>
    </g>
  </g>
<g clip-path="url(#ID000003)">
      <polyline fill="none" stroke="#7f0000" stroke-width="3.5pt" stroke-dasharray="none" points="285.750,321.375 323.250,321.375 "/>
<g>
</g>
</g>
<g clip-path="url(#ID000003)">
<g>
</g>
</g>
    </g>
  </g>
  <g>
  <clipPath id="ID000004">
    <rect x="480.647" y="239.266" width="224.008" height="7.828"/>
  </clipPath>
      <polyline fill="#ffffff" fill-opacity="1.00" stroke="none" stroke-width="3.5pt" stroke-opacity="1.00" stroke-dasharray="none" points="480.647,247.094 704.655,247.094 704.655,239.266 480.647,239.266 "/>
      <polyline fill="#ffffff" fill-opacity="1.00" stroke="none" stroke-width="3.5pt" stroke-opacity="1.00" stroke-dasharray="none" points="480.647,247.094 704.655,247.094 704.655,247.094 480.647,247.094 "/>
      <polyline fill="#ffffff" fill-opacity="1.00" stroke="none" stroke-width="3.5pt" stroke-opacity="1.00" stroke-dasharray="none" points="480.647,247.094 480.647,247.094 480.647,239.266 480.647,239.266 "/>
    <g>
<g clip-path="url(#ID000004)">
      <polyline fill="none" stroke="#727272" stroke-width="3.5pt" stroke-dasharray="none" points="501.012,242.724 501.820,242.938 502.645,243.125 503.486,243.290 504.343,243.438 505.218,243.571 506.110,243.692 507.019,243.804 507.947,243.906 508.893,244.001 509.858,244.089 510.842,244.172 511.846,244.249 512.869,244.322 513.913,244.390 514.978,244.455 516.063,244.516 517.171,244.574 518.300,244.629 519.452,244.681 520.626,244.731 521.824,244.779 523.045,244.824 524.291,244.868 525.562,244.909 526.858,244.949 528.179,244.988 529.527,245.025 530.901,245.060 532.303,245.094 533.733,245.127 535.191,245.159 536.678,245.189 538.194,245.218 539.741,245.247 541.318,245.274 542.927,245.301 544.567,245.326 546.240,245.351 547.946,245.375 549.686,245.399 551.461,245.421 553.271,245.443 555.117,245.464 556.999,245.485 558.919,245.504 560.877,245.524 562.874,245.543 564.910,245.561 566.987,245.578 569.105,245.596 571.265,245.612 573.468,245.629 575.715,245.644 578.007,245.660 580.343,245.675 582.727,245.689 585.157,245.703 587.636,245.717 590.164,245.731 592.742,245.744 595.371,245.756 598.053,245.769 600.788,245.781 603.577,245.793 606.421,245.804 609.322,245.815 612.280,245.826 615.297,245.837 618.374,245.847 621.513,245.857 624.713,245.867 627.977,245.877 631.306,245.886 634.701,245.895 638.163,245.904 641.694,245.913 645.295,245.922 648.967,245.930 652.713,245.938 656.532,245.946 660.428,245.954 664.401,245.961 668.453,245.961 672.585,245.961 676.799,245.961 681.097,245.961 685.480,245.961 689.950,245.961 694.509,245.961 699.159,245.961 703.900,245.961 708.736,245.961 713.668,245.961 718.698,245.961 723.827,245.961 729.059,245.961 734.394,245.961 739.835,245.961 745.384,245.961 "/>
<g>
</g>
</g>
<g clip-path="url(#ID000004)">
      <polyline fill="none" stroke="#000000" stroke-width="3.5pt" stroke-dasharray="none" points="501.012,239.756 501.820,240.002 502.645,240.220 503.486,240.416 504.343,240.595 505.218,240.760 506.110,240.913 507.019,241.055 507.947,241.190 508.893,241.317 509.858,241.437 510.842,241.551 511.846,241.661 512.869,241.765 513.913,241.866 514.978,241.963 516.063,242.057 517.171,242.147 518.300,242.235 519.452,242.320 520.626,242.403 521.824,242.484 523.045,242.563 524.291,242.639 525.562,242.714 526.858,242.788 528.179,242.860 529.527,242.930 530.901,243.000 532.303,243.068 533.733,243.135 535.191,243.200 536.678,243.265 538.194,243.329 539.741,243.392 541.318,243.454 542.927,243.515 544.567,243.576 546.240,243.636 547.946,243.695 549.686,243.753 551.461,243.811 553.271,243.869 555.117,243.926 556.999,243.982 558.919,244.038 560.877,244.094 562.874,244.149 564.910,244.203 566.987,244.258 569.105,244.312 571.265,244.365 573.468,244.419 575.715,244.472 578.007,244.524 580.343,244.577 582.727,244.629 585.157,244.682 587.636,244.734 590.164,244.785 592.742,244.837 595.371,244.889 598.053,244.940 600.788,244.991 603.577,245.042 606.421,245.094 609.322,245.145 612.280,245.196 615.297,245.247 618.374,245.298 621.513,245.349 624.713,245.400 627.977,245.451 631.306,245.502 634.701,245.553 638.163,245.604 641.694,245.656 645.295,245.707 648.967,245.759 652.713,245.811 656.532,245.862 660.428,245.914 664.401,245.961 668.453,245.961 672.585,245.961 676.799,245.961 681.097,245.961 685.480,245.961 689.950,245.961 694.509,245.961 699.159,245.961 703.900,245.961 708.736,245.961 713.668,245.961 718.698,245.961 723.827,245.961 729.059,245.961 734.394,245.961 739.835,245.961 745.384,245.961 "/>
<g>
</g>
</g>
  <g transform="translate(592.062,264.286)">
    <g transform="rotate(-0.0)">
      <text x="0.000" y="0.000" font-family="Helvetica" text-anchor="middle" font-size="17.6pt" fill="#000000" >Spatial frequency</text>
    </g>
  </g>
  <g transform="translate(432.898,249.842)">
    <g transform="rotate(-90.0)">
      <text x="0.000" y="0.000" font-family="Helvetica" text-anchor="middle" font-size="17.6pt" fill="#000000" >Normalization factor, N</text>
    </g>
  </g>
    </g>
    <g>
      <polyline fill="none" stroke="#000000" stroke-width="3.5pt" stroke-dasharray="none" points="501.012,247.094 501.012,247.002 "/>
      <polyline fill="none" stroke="#000000" stroke-width="3.5pt" stroke-dasharray="none" points="582.469,247.094 582.469,247.002 "/>
      <polyline fill="none" stroke="#000000" stroke-width="3.5pt" stroke-dasharray="none" points="663.927,247.094 663.927,247.002 "/>
      <polyline fill="none" stroke="#000000" stroke-width="3.5pt" stroke-dasharray="none" points="480.647,247.094 704.655,247.094 "/>
  <g transform="translate(501.012,264.850)">
    <g transform="rotate(-0.0)">
      <text x="0.000" y="0.000" font-family="Helvetica" text-anchor="middle" font-size="17.6pt" fill="#000000" >0.1</text>
    </g>
  </g>
  <g transform="translate(582.469,264.850)">
    <g transform="rotate(-0.0)">
      <text x="0.000" y="0.000" font-family="Helvetica" text-anchor="middle" font-size="17.6pt" fill="#000000" >0.3</text>
    </g>
  </g>
  <g transform="translate(663.927,264.850)">
    <g transform="rotate(-0.0)">
      <text x="0.000" y="0.000" font-family="Helvetica" text-anchor="middle" font-size="17.6pt" fill="#000000" >0.5</text>
    </g>
  </g>
      <polyline fill="none" stroke="#000000" stroke-width="3.5pt" stroke-dasharray="none" points="480.647,245.961 482.887,245.961 "/>
      <polyline fill="none" stroke="#000000" stroke-width="3.5pt" stroke-dasharray="none" points="480.647,243.694 482.887,243.694 "/>
      <polyline fill="none" stroke="#000000" stroke-width="3.5pt" stroke-dasharray="none" points="480.647,241.427 482.887,241.427 "/>
      <polyline fill="none" stroke="#000000" stroke-width="3.5pt" stroke-dasharray="none" points="480.647,247.094 480.647,239.266 "/>
  <g transform="translate(476.167,261.361)">
    <g transform="rotate(-0.0)">
      <text x="0.000" y="0.000" font-family="Helvetica" text-anchor="end" font-size="17.6pt" fill="#000000" >10<tspan font-size="13.2pt" dy="-13.2pt">1</tspan></text>
    </g>
  </g>
  <g transform="translate(476.167,259.094)">
    <g transform="rotate(-0.0)">
      <text x="0.000" y="0.000" font-family="Helvetica" text-anchor="end" font-size="17.6pt" fill="#000000" >10<tspan font-size="13.2pt" dy="-13.2pt">4</tspan></text>
    </g>
  </g>
  <g transform="translate(476.167,256.827)">
    <g transform="rotate(-0.0)">
      <text x="0.000" y="0.000" font-family="Helvetica" text-anchor="end" font-size="17.6pt" fill="#000000" >10<tspan font-size="13.2pt" dy="-13.2pt">16</tspan></text>
    </g>
  </g>
      <polyline fill="none" stroke="#000000" stroke-width="3.5pt" stroke-dasharray="none" points="480.647,247.094 480.647,247.016 "/>
      <polyline fill="none" stroke="#000000" stroke-width="3.5pt" stroke-dasharray="none" points="480.647,247.094 480.647,247.094 "/>
    </g>
  </g>
  <g>
  <clipPath id="ID000005">
    <rect x="587.250" y="150.250" width="95.500" height="57.625"/>
  </clipPath>
    <g>
  <g transform="translate(637.487,170.843)">
    <g transform="rotate(-0.0)">
      <text x="0.000" y="0.000" font-family="Helvetica" text-anchor="start" font-size="11.2pt" fill="#000000" >50%</text>
    </g>
  </g>
<g clip-path="url(#ID000005)">
      <polyline fill="none" stroke="#727272" stroke-width="3.5pt" stroke-dasharray="none" points="594.750,165.750 632.250,165.750 "/>
<g>
</g>
</g>
<g clip-path="url(#ID000005)">
<g>
</g>
</g>
  <g transform="translate(637.487,197.669)">
    <g transform="rotate(-0.0)">
      <text x="0.000" y="0.000" font-family="Helvetica" text-anchor="start" font-size="11.2pt" fill="#000000" >100%</text>
    </g>
  </g>
<g clip-path="url(#ID000005)">
      <polyline fill="none" stroke="#000000" stroke-width="3.5pt" stroke-dasharray="none" points="594.750,192.375 632.250,192.375 "/>
<g>
</g>
</g>
<g clip-path="url(#ID000005)">
<g>
</g>
</g>
    </g>
  </g>
  <g>
  <clipPath id="ID000006">
    <rect x="806.265" y="37.919" width="162.267" height="162.267"/>
  </clipPath>
      <polyline fill="#ffffff" fill-opacity="1.00" stroke="none" stroke-width="3.5pt" stroke-opacity="1.00" stroke-dasharray="none" points="806.265,200.186 968.532,200.186 968.532,37.919 806.265,37.919 "/>
      <polyline fill="#ffffff" fill-opacity="1.00" stroke="none" stroke-width="3.5pt" stroke-opacity="1.00" stroke-dasharray="none" points="806.265,37.919 968.532,37.919 968.532,37.919 806.265,37.919 "/>
      <polyline fill="#ffffff" fill-opacity="1.00" stroke="none" stroke-width="3.5pt" stroke-opacity="1.00" stroke-dasharray="none" points="806.265,200.186 806.265,200.186 806.265,37.919 806.265,37.919 "/>
    <g>
<g clip-path="url(#ID000006)">
      <polyline fill="none" stroke="#00ff00" stroke-width="3.5pt" stroke-dasharray="none" points="821.017,80.958 821.602,84.215 822.199,87.414 822.809,90.557 823.430,93.643 824.063,96.675 824.709,99.651 825.368,102.574 826.040,105.442 826.726,108.257 827.425,111.020 828.138,113.731 828.865,116.390 829.606,118.998 830.362,121.555 831.133,124.063 831.920,126.521 832.722,128.931 833.540,131.292 834.374,133.605 835.225,135.871 836.093,138.089 836.977,140.262 837.880,142.389 838.800,144.470 839.739,146.506 840.696,148.498 841.672,150.446 842.668,152.351 843.684,154.212 844.719,156.031 845.775,157.808 846.852,159.543 847.951,161.237 849.071,162.889 850.214,164.502 851.379,166.074 852.567,167.606 853.779,169.099 855.015,170.554 856.276,171.969 857.561,173.347 858.872,174.686 860.209,175.988 861.573,177.253 862.964,178.481 864.382,179.673 865.828,180.828 867.304,181.948 868.808,183.031 870.342,184.080 871.907,185.093 873.503,186.072 875.130,187.016 876.790,187.925 878.483,188.801 880.209,189.643 881.970,190.451 883.766,191.226 885.597,191.967 887.464,192.676 889.369,193.352 891.311,193.995 893.292,194.606 895.313,195.184 897.373,195.730 899.474,196.244 901.618,196.727 903.803,197.177 906.032,197.596 908.305,197.983 910.624,198.339 912.988,198.663 915.399,198.956 917.858,199.217 920.366,199.447 922.924,199.646 925.533,199.814 928.193,199.951 930.906,200.056 933.673,200.131 936.495,200.174 939.373,200.186 942.308,200.186 945.301,200.186 948.354,200.186 951.467,200.186 954.642,200.186 957.880,200.186 961.183,200.186 964.551,200.186 967.985,200.186 971.488,200.186 975.061,200.186 978.704,200.186 982.420,200.186 986.210,200.186 990.074,200.186 994.016,200.186 998.036,200.186 "/>
<g>
</g>
</g>
<g clip-path="url(#ID000006)">
      <polyline fill="none" stroke="#007f00" stroke-width="3.5pt" stroke-dasharray="none" points="821.017,64.963 821.602,66.136 822.199,67.328 822.809,68.540 823.430,69.771 824.063,71.022 824.709,72.294 825.368,73.586 826.040,74.899 826.726,76.233 827.425,77.587 828.138,78.963 828.865,80.360 829.606,81.779 830.362,83.219 831.133,84.681 831.920,86.165 832.722,87.671 833.540,89.198 834.374,90.748 835.225,92.321 836.093,93.915 836.977,95.532 837.880,97.171 838.800,98.833 839.739,100.516 840.696,102.222 841.672,103.951 842.668,105.701 843.684,107.473 844.719,109.267 845.775,111.082 846.852,112.918 847.951,114.776 849.071,116.654 850.214,118.553 851.379,120.471 852.567,122.409 853.779,124.366 855.015,126.341 856.276,128.333 857.561,130.343 858.872,132.369 860.209,134.410 861.573,136.466 862.964,138.535 864.382,140.617 865.828,142.709 867.304,144.811 868.808,146.922 870.342,149.040 871.907,151.162 873.503,153.288 875.130,155.415 876.790,157.542 878.483,159.665 880.209,161.783 881.970,163.893 883.766,165.992 885.597,168.077 887.464,170.145 889.369,172.192 891.311,174.214 893.292,176.208 895.313,178.168 897.373,180.091 899.474,181.971 901.618,183.802 903.803,185.579 906.032,187.295 908.305,188.944 910.624,190.519 912.988,192.010 915.399,193.411 917.858,194.713 920.366,195.904 922.924,196.975 925.533,197.915 928.193,198.711 930.906,199.351 933.673,199.820 936.495,200.104 939.373,200.186 942.308,200.186 945.301,200.186 948.354,200.186 951.467,200.186 954.642,200.186 957.880,200.186 961.183,200.186 964.551,200.186 967.985,200.186 971.488,200.186 975.061,200.186 978.704,200.186 982.420,200.186 986.210,200.186 990.074,200.186 994.016,200.186 998.036,200.186 "/>
<g>
</g>
</g>
  <g transform="translate(886.898,33.190)">
    <g transform="rotate(-0.0)">
      <text x="0.000" y="0.000" font-family="Helvetica" text-anchor="middle" font-size="12.8pt" fill="#000000" >Low SF cell</text>
    </g>
  </g>
    </g>
    <g>
      <polyline fill="none" stroke="#000000" stroke-width="3.5pt" stroke-dasharray="none" points="821.017,200.186 821.017,197.946 "/>
      <polyline fill="none" stroke="#000000" stroke-width="3.5pt" stroke-dasharray="none" points="880.023,200.186 880.023,197.946 "/>
      <polyline fill="none" stroke="#000000" stroke-width="3.5pt" stroke-dasharray="none" points="939.029,200.186 939.029,197.946 "/>
      <polyline fill="none" stroke="#000000" stroke-width="3.5pt" stroke-dasharray="none" points="806.265,200.186 968.532,200.186 "/>
  <g transform="translate(821.017,221.031)">
    <g transform="rotate(-0.0)">
      <text x="0.000" y="0.000" font-family="Helvetica" text-anchor="middle" font-size="17.6pt" fill="#000000" >0.1</text>
    </g>
  </g>
  <g transform="translate(880.023,221.031)">
    <g transform="rotate(-0.0)">
      <text x="0.000" y="0.000" font-family="Helvetica" text-anchor="middle" font-size="17.6pt" fill="#000000" >0.3</text>
    </g>
  </g>
  <g transform="translate(939.029,221.031)">
    <g transform="rotate(-0.0)">
      <text x="0.000" y="0.000" font-family="Helvetica" text-anchor="middle" font-size="17.6pt" fill="#000000" >0.5</text>
    </g>
  </g>
      <polyline fill="none" stroke="#000000" stroke-width="3.5pt" stroke-dasharray="none" points="806.265,64.963 807.888,64.963 "/>
      <polyline fill="none" stroke="#000000" stroke-width="3.5pt" stroke-dasharray="none" points="806.265,200.186 806.265,37.919 "/>
  <g transform="translate(803.020,206.786)">
    <g transform="rotate(-0.0)">
      <text x="0.000" y="0.000" font-family="Helvetica" text-anchor="end" font-size="17.6pt" fill="#000000" >0</text>
    </g>
  </g>
  <g transform="translate(803.020,71.563)">
    <g transform="rotate(-0.0)">
      <text x="0.000" y="0.000" font-family="Helvetica" text-anchor="end" font-size="17.6pt" fill="#000000" >1</text>
    </g>
  </g>
      <polyline fill="none" stroke="#000000" stroke-width="3.5pt" stroke-dasharray="none" points="806.265,200.186 806.265,198.563 "/>
      <polyline fill="none" stroke="#000000" stroke-width="3.5pt" stroke-dasharray="none" points="806.265,200.186 806.265,200.186 "/>
    </g>
  </g>
  <g>
  <clipPath id="ID000007">
    <rect x="867.250" y="40.250" width="95.500" height="57.625"/>
  </clipPath>
    <g>
  <g transform="translate(917.487,60.843)">
    <g transform="rotate(-0.0)">
      <text x="0.000" y="0.000" font-family="Helvetica" text-anchor="start" font-size="11.2pt" fill="#000000" >50%</text>
    </g>
  </g>
<g clip-path="url(#ID000007)">
      <polyline fill="none" stroke="#00ff00" stroke-width="3.5pt" stroke-dasharray="none" points="874.750,55.750 912.250,55.750 "/>
<g>
</g>
</g>
<g clip-path="url(#ID000007)">
<g>
</g>
</g>
  <g transform="translate(917.487,87.669)">
    <g transform="rotate(-0.0)">
      <text x="0.000" y="0.000" font-family="Helvetica" text-anchor="start" font-size="11.2pt" fill="#000000" >100%</text>
    </g>
  </g>
<g clip-path="url(#ID000007)">
      <polyline fill="none" stroke="#007f00" stroke-width="3.5pt" stroke-dasharray="none" points="874.750,82.375 912.250,82.375 "/>
<g>
</g>
</g>
<g clip-path="url(#ID000007)">
<g>
</g>
</g>
    </g>
  </g>
  <g>
  <clipPath id="ID000008">
    <rect x="806.265" y="276.733" width="162.267" height="162.267"/>
  </clipPath>
      <polyline fill="#ffffff" fill-opacity="1.00" stroke="none" stroke-width="3.5pt" stroke-opacity="1.00" stroke-dasharray="none" points="806.265,439.000 968.532,439.000 968.532,276.733 806.265,276.733 "/>
      <polyline fill="#ffffff" fill-opacity="1.00" stroke="none" stroke-width="3.5pt" stroke-opacity="1.00" stroke-dasharray="none" points="806.265,276.733 968.532,276.733 968.532,276.733 806.265,276.733 "/>
      <polyline fill="#ffffff" fill-opacity="1.00" stroke="none" stroke-width="3.5pt" stroke-opacity="1.00" stroke-dasharray="none" points="806.265,439.000 806.265,439.000 806.265,276.733 806.265,276.733 "/>
    <g>
<g clip-path="url(#ID000008)">
      <polyline fill="none" stroke="#ff0000" stroke-width="3.5pt" stroke-dasharray="none" points="821.017,424.472 821.602,422.509 822.199,420.599 822.809,418.742 823.430,416.939 824.063,415.189 824.709,413.492 825.368,411.850 826.040,410.263 826.726,408.729 827.425,407.251 828.138,405.829 828.865,404.462 829.606,403.151 830.362,401.897 831.133,400.699 831.920,399.559 832.722,398.476 833.540,397.452 834.374,396.485 835.225,395.578 836.093,394.729 836.977,393.941 837.880,393.212 838.800,392.543 839.739,391.935 840.696,391.387 841.672,390.901 842.668,390.477 843.684,390.113 844.719,389.812 845.775,389.573 846.852,389.396 847.951,389.280 849.071,389.227 850.214,389.236 851.379,389.306 852.567,389.438 853.779,389.632 855.015,389.886 856.276,390.200 857.561,390.574 858.872,391.007 860.209,391.498 861.573,392.046 862.964,392.650 864.382,393.309 865.828,394.021 867.304,394.785 868.808,395.598 870.342,396.461 871.907,397.369 873.503,398.321 875.130,399.316 876.790,400.349 878.483,401.419 880.209,402.523 881.970,403.658 883.766,404.821 885.597,406.008 887.464,407.216 889.369,408.442 891.311,409.682 893.292,410.932 895.313,412.189 897.373,413.449 899.474,414.708 901.618,415.961 903.803,417.206 906.032,418.438 908.305,419.653 910.624,420.848 912.988,422.020 915.399,423.164 917.858,424.278 920.366,425.359 922.924,426.403 925.533,427.408 928.193,428.372 930.906,429.293 933.673,430.169 936.495,430.999 939.373,431.785 942.308,432.549 945.301,433.258 948.354,433.912 951.467,434.514 954.642,435.065 957.880,435.566 961.183,436.019 964.551,436.428 967.985,436.793 971.488,437.118 975.061,437.406 978.704,437.658 982.420,437.879 986.210,438.069 990.074,438.234 994.016,438.374 998.036,438.492 "/>
<g>
</g>
</g>
<g clip-path="url(#ID000008)">
      <polyline fill="none" stroke="#7f0000" stroke-width="3.5pt" stroke-dasharray="none" points="821.017,422.523 821.602,419.938 822.199,417.322 822.809,414.674 823.430,411.996 824.063,409.288 824.709,406.551 825.368,403.788 826.040,400.998 826.726,398.184 827.425,395.347 828.138,392.489 828.865,389.612 829.606,386.717 830.362,383.807 831.133,380.884 831.920,377.952 832.722,375.011 833.540,372.066 834.374,369.120 835.225,366.175 836.093,363.236 836.977,360.306 837.880,357.389 838.800,354.490 839.739,351.611 840.696,348.760 841.672,345.939 842.668,343.155 843.684,340.412 844.719,337.717 845.775,335.074 846.852,332.490 847.951,329.972 849.071,327.525 850.214,325.157 851.379,322.874 852.567,320.683 853.779,318.591 855.015,316.605 856.276,314.734 857.561,312.984 858.872,311.362 860.209,309.877 861.573,308.536 862.964,307.346 864.382,306.315 865.828,305.449 867.304,304.756 868.808,304.242 870.342,303.914 871.907,303.777 873.503,303.837 875.130,304.100 876.790,304.568 878.483,305.247 880.209,306.138 881.970,307.245 883.766,308.567 885.597,310.107 887.464,311.862 889.369,313.831 891.311,316.011 893.292,318.398 895.313,320.986 897.373,323.769 899.474,326.739 901.618,329.886 903.803,333.200 906.032,336.669 908.305,340.280 910.624,344.018 912.988,347.868 915.399,351.814 917.858,355.837 920.366,359.921 922.924,364.046 925.533,368.192 928.193,372.340 930.906,376.471 933.673,380.565 936.495,384.602 939.373,388.754 942.308,394.073 945.301,399.009 948.354,403.568 951.467,407.760 954.642,411.594 957.880,415.083 961.183,418.242 964.551,421.086 967.985,423.631 971.488,425.896 975.061,427.897 978.704,429.656 982.420,431.190 986.210,432.519 990.074,433.662 994.016,434.637 998.036,435.463 "/>
<g>
</g>
</g>
  <g transform="translate(886.898,272.004)">
    <g transform="rotate(-0.0)">
      <text x="0.000" y="0.000" font-family="Helvetica" text-anchor="middle" font-size="12.8pt" fill="#000000" >High SF cell</text>
    </g>
  </g>
  <g transform="translate(886.898,497.972)">
    <g transform="rotate(-0.0)">
      <text x="0.000" y="0.000" font-family="Helvetica" text-anchor="middle" font-size="17.6pt" fill="#000000" >Spatial frequency</text>
    </g>
  </g>
  <g transform="translate(780.723,358.489)">
    <g transform="rotate(-90.0)">
      <text x="0.000" y="0.000" font-family="Helvetica" text-anchor="middle" font-size="17.6pt" fill="#000000" >                                Firing rate, R_i</text>
    </g>
  </g>
    </g>
    <g>
      <polyline fill="none" stroke="#000000" stroke-width="3.5pt" stroke-dasharray="none" points="821.017,439.000 821.017,436.760 "/>
      <polyline fill="none" stroke="#000000" stroke-width="3.5pt" stroke-dasharray="none" points="880.023,439.000 880.023,436.760 "/>
      <polyline fill="none" stroke="#000000" stroke-width="3.5pt" stroke-dasharray="none" points="939.029,439.000 939.029,436.760 "/>
      <polyline fill="none" stroke="#000000" stroke-width="3.5pt" stroke-dasharray="none" points="806.265,439.000 968.532,439.000 "/>
  <g transform="translate(821.017,459.845)">
    <g transform="rotate(-0.0)">
      <text x="0.000" y="0.000" font-family="Helvetica" text-anchor="middle" font-size="17.6pt" fill="#000000" >0.1</text>
    </g>
  </g>
  <g transform="translate(880.023,459.845)">
    <g transform="rotate(-0.0)">
      <text x="0.000" y="0.000" font-family="Helvetica" text-anchor="middle" font-size="17.6pt" fill="#000000" >0.3</text>
    </g>
  </g>
  <g transform="translate(939.029,459.845)">
    <g transform="rotate(-0.0)">
      <text x="0.000" y="0.000" font-family="Helvetica" text-anchor="middle" font-size="17.6pt" fill="#000000" >0.5</text>
    </g>
  </g>
      <polyline fill="none" stroke="#000000" stroke-width="3.5pt" stroke-dasharray="none" points="806.265,303.777 807.888,303.777 "/>
      <polyline fill="none" stroke="#000000" stroke-width="3.5pt" stroke-dasharray="none" points="806.265,439.000 806.265,276.733 "/>
  <g transform="translate(803.020,445.600)">
    <g transform="rotate(-0.0)">
      <text x="0.000" y="0.000" font-family="Helvetica" text-anchor="end" font-size="17.6pt" fill="#000000" >0</text>
    </g>
  </g>
  <g transform="translate(803.020,310.377)">
    <g transform="rotate(-0.0)">
      <text x="0.000" y="0.000" font-family="Helvetica" text-anchor="end" font-size="17.6pt" fill="#000000" >1</text>
    </g>
  </g>
      <polyline fill="none" stroke="#000000" stroke-width="3.5pt" stroke-dasharray="none" points="806.265,439.000 806.265,437.377 "/>
      <polyline fill="none" stroke="#000000" stroke-width="3.5pt" stroke-dasharray="none" points="806.265,439.000 806.265,439.000 "/>
    </g>
  </g>
  <g>
  <clipPath id="ID000009">
    <rect x="900.200" y="271.150" width="97.800" height="57.625"/>
  </clipPath>
    <g>
  <g transform="translate(951.595,291.743)">
    <g transform="rotate(-0.0)">
      <text x="0.000" y="0.000" font-family="Helvetica" text-anchor="start" font-size="11.2pt" fill="#000000" >50%</text>
    </g>
  </g>
<g clip-path="url(#ID000009)">
      <polyline fill="none" stroke="#ff0000" stroke-width="3.5pt" stroke-dasharray="none" points="907.881,286.650 946.284,286.650 "/>
<g>
</g>
</g>
<g clip-path="url(#ID000009)">
<g>
</g>
</g>
  <g transform="translate(951.595,318.569)">
    <g transform="rotate(-0.0)">
      <text x="0.000" y="0.000" font-family="Helvetica" text-anchor="start" font-size="11.2pt" fill="#000000" >100%</text>
    </g>
  </g>
<g clip-path="url(#ID000009)">
      <polyline fill="none" stroke="#7f0000" stroke-width="3.5pt" stroke-dasharray="none" points="907.881,313.275 946.284,313.275 "/>
<g>
</g>
</g>
<g clip-path="url(#ID000009)">
<g>
</g>
</g>
    </g>
  </g>
  <g>
  <clipPath id="ID000010">
    <rect x="1087.185" y="148.219" width="189.921" height="189.921"/>
  </clipPath>
      <polyline fill="#ffffff" fill-opacity="1.00" stroke="none" stroke-width="3.5pt" stroke-opacity="1.00" stroke-dasharray="none" points="1087.185,338.141 1277.107,338.141 1277.107,148.219 1087.185,148.219 "/>
      <polyline fill="#ffffff" fill-opacity="1.00" stroke="none" stroke-width="3.5pt" stroke-opacity="1.00" stroke-dasharray="none" points="1087.185,148.219 1277.107,148.219 1277.107,148.219 1087.185,148.219 "/>
      <polyline fill="#ffffff" fill-opacity="1.00" stroke="none" stroke-width="3.5pt" stroke-opacity="1.00" stroke-dasharray="none" points="1087.185,338.141 1087.185,338.141 1087.185,148.219 1087.185,148.219 "/>
    <g>
<g clip-path="url(#ID000010)">
      <polyline fill="none" stroke="#727272" stroke-width="3.5pt" stroke-dasharray="none" points="1104.451,197.147 1104.935,199.228 1105.420,201.262 1105.904,203.251 1106.389,205.195 1106.873,207.096 1107.357,208.955 1107.842,210.775 1108.326,212.555 1108.811,214.298 1109.295,216.005 1109.779,217.676 1110.264,219.313 1110.748,220.916 1111.233,222.488 1111.717,224.028 1112.201,225.538 1112.686,227.019 1113.170,228.471 1113.655,229.896 1114.139,231.293 1114.623,232.664 1115.108,234.010 1115.592,235.331 1116.077,236.628 1116.561,237.901 1117.045,239.152 1117.530,240.380 1118.014,241.587 1118.499,242.772 1118.983,243.938 1119.467,245.083 1119.952,246.209 1120.436,247.315 1120.921,248.404 1121.405,249.474 1121.890,250.527 1122.374,251.562 1122.858,252.581 1123.343,253.583 1123.827,254.570 1124.312,255.541 1124.796,256.496 1125.280,257.437 1125.765,258.363 1126.249,259.276 1126.734,260.174 1127.218,261.059 1127.702,261.930 1128.187,262.789 1128.671,263.635 1129.156,264.468 1129.640,265.289 1130.124,266.099 1130.609,266.897 1131.093,267.684 1131.578,268.459 1132.062,269.224 1132.546,269.978 1133.031,270.721 1133.515,271.455 1134.000,272.178 1134.484,272.892 1134.968,273.595 1135.453,274.290 1135.937,274.975 1136.422,275.652 1136.906,276.319 1137.390,276.978 1137.875,277.628 1138.359,278.270 1138.844,278.904 1139.328,279.529 1139.812,280.147 1140.297,280.757 1140.781,281.359 1141.266,281.954 1141.750,282.542 1142.235,283.123 1142.719,283.696 1143.203,284.262 1143.688,284.822 1144.172,285.375 1144.657,285.922 1145.141,286.462 1145.625,286.995 1146.110,287.523 1146.594,288.044 1147.079,288.560 1147.563,289.069 1148.047,289.573 1148.532,290.071 1149.016,290.563 1149.501,291.050 1149.985,291.531 1150.469,292.007 1150.954,292.478 1151.438,292.944 1151.923,293.404 1152.407,293.860 1152.891,294.311 1153.376,294.757 1153.860,295.198 1154.345,295.634 1154.829,296.066 1155.313,296.494 1155.798,296.916 1156.282,297.335 1156.767,297.749 1157.251,298.159 1157.735,298.565 1158.220,298.966 1158.704,299.364 1159.189,299.757 1159.673,300.147 1160.157,300.533 1160.642,300.914 1161.126,301.293 1161.611,301.667 1162.095,302.038 1162.580,302.405 1163.064,302.768 1163.548,303.128 1164.033,303.485 1164.517,303.838 1165.002,304.188 1165.486,304.535 1165.970,304.878 1166.455,305.218 1166.939,305.555 1167.424,305.889 1167.908,306.220 1168.392,306.547 1168.877,306.872 1169.361,307.194 1169.846,307.512 1170.330,307.828 1170.814,308.142 1171.299,308.452 1171.783,308.759 1172.268,309.064 1172.752,309.366 1173.236,309.666 1173.721,309.963 1174.205,310.257 1174.690,310.549 1175.174,310.838 1175.658,311.124 1176.143,311.409 1176.627,311.690 1177.112,311.970 1177.596,312.247 1178.080,312.522 1178.565,312.794 1179.049,313.064 1179.534,313.332 1180.018,313.598 1180.502,313.861 1180.987,314.123 1181.471,314.382 1181.956,314.639 1182.440,314.894 1182.925,315.147 1183.409,315.398 1183.893,315.647 1184.378,315.894 1184.862,316.139 1185.347,316.382 1185.831,316.623 1186.315,316.862 1186.800,317.100 1187.284,317.335 1187.769,317.569 1188.253,317.801 1188.737,318.031 1189.222,318.259 1189.706,318.486 1190.191,318.710 1190.675,318.933 1191.159,319.155 1191.644,319.375 1192.128,319.593 1192.613,319.809 1193.097,320.024 1193.581,320.238 1194.066,320.449 1194.550,320.659 1195.035,320.868 1195.519,321.075 1196.003,321.281 1196.488,321.485 1196.972,321.687 1197.457,321.889 1197.941,322.088 1198.425,322.287 1198.910,322.483 1199.394,322.679 1199.879,322.873 1200.363,323.066 1200.847,323.257 1201.332,323.447 1201.816,323.636 1202.301,323.823 1202.785,324.009 1203.270,324.194 1203.754,324.378 1204.238,324.560 1204.723,324.741 1205.207,324.921 1205.692,325.099 1206.176,325.277 1206.660,325.453 1207.145,325.628 1207.629,325.802 1208.114,325.974 1208.598,326.146 1209.082,326.316 1209.567,326.486 1210.051,326.654 1210.536,326.821 1211.020,326.987 1211.504,327.152 1211.989,327.315 1212.473,327.478 1212.958,327.640 1213.442,327.800 1213.926,327.960 1214.411,328.119 1214.895,328.276 1215.380,328.433 1215.864,328.588 1216.348,328.743 1216.833,328.896 1217.317,329.049 1217.802,329.201 1218.286,329.352 1218.770,329.501 1219.255,329.650 1219.739,329.798 1220.224,329.945 1220.708,330.091 1221.192,330.237 1221.677,330.381 1222.161,330.525 1222.646,330.667 1223.130,330.809 1223.615,330.950 1224.099,331.090 1224.583,331.229 1225.068,331.368 1225.552,331.505 1226.037,331.642 1226.521,331.778 1227.005,331.913 1227.490,332.047 1227.974,332.181 1228.459,332.314 1228.943,332.446 1229.427,332.577 1229.912,332.707 1230.396,332.837 1230.881,332.966 1231.365,333.094 1231.849,333.222 1232.334,333.348 1232.818,333.474 1233.303,333.600 1233.787,333.724 1234.271,333.848 1234.756,333.971 1235.240,334.094 1235.725,334.216 1236.209,334.337 1236.693,334.457 1237.178,334.577 1237.662,334.696 1238.147,334.815 1238.631,334.933 1239.115,335.050 1239.600,335.166 1240.084,335.282 1240.569,335.397 1241.053,335.512 1241.538,335.626 1242.022,335.739 1242.506,335.852 1242.991,335.964 1243.475,336.076 1243.960,336.187 1244.444,336.297 1244.928,336.407 1245.413,336.516 1245.897,336.625 1246.382,336.733 1246.866,336.840 1247.350,336.947 1247.835,337.054 1248.319,337.160 1248.804,337.265 1249.288,337.369 1249.772,337.474 1250.257,337.577 1250.741,337.680 1251.226,337.783 1251.710,337.885 1252.194,337.986 1252.679,338.087 1253.163,338.188 1253.648,338.288 1254.132,338.387 1254.616,338.486 1255.101,338.585 1255.585,338.683 1256.070,338.780 1256.554,338.877 1257.038,338.974 1257.523,339.070 1258.007,339.165 1258.492,339.260 1258.976,339.355 1259.460,339.449 1259.945,339.543 1260.429,339.636 1260.914,339.729 1261.398,339.821 1261.883,339.913 1262.367,340.004 1262.851,340.095 1263.336,340.186 1263.820,340.276 1264.305,340.366 1264.789,340.455 1265.273,340.544 1265.758,340.632 1266.242,340.720 1266.727,340.807 1267.211,340.895 1267.695,340.981 1268.180,341.068 1268.664,341.153 1269.149,341.239 1269.633,341.324 1270.117,341.409 1270.602,341.493 1271.086,341.577 1271.571,341.660 1272.055,341.744 1272.539,341.826 1273.024,341.909 1273.508,341.991 1273.993,342.072 1274.477,342.153 1274.961,342.234 1275.446,342.315 1275.930,342.395 1276.415,342.475 1276.899,342.554 1277.383,342.633 1277.868,342.712 1278.352,342.790 1278.837,342.868 1279.321,342.946 1279.805,343.023 1280.290,343.100 1280.774,343.177 1281.259,343.253 1281.743,343.329 1282.228,343.404 1282.712,343.480 1283.196,343.554 1283.681,343.629 1284.165,343.703 1284.650,343.777 1285.134,343.851 1285.618,343.924 1286.103,343.997 1286.587,344.070 1287.072,344.142 1287.556,344.214 1288.040,344.286 1288.525,344.357 1289.009,344.428 1289.494,344.499 1289.978,344.570 1290.462,344.640 1290.947,344.710 1291.431,344.779 1291.916,344.849 1292.400,344.918 1292.884,344.987 1293.369,345.055 1293.853,345.123 1294.338,345.191 1294.822,345.259 1295.306,345.326 1295.791,345.393 1296.275,345.460 1296.760,345.526 1297.244,345.592 1297.728,345.658 1298.213,345.724 1298.697,345.789 1299.182,345.854 1299.666,345.919 1300.150,345.984 1300.635,346.048 1301.119,346.112 1301.604,346.176 1302.088,346.240 1302.573,346.303 1303.057,346.366 1303.541,346.429 1304.026,346.491 1304.510,346.553 1304.995,346.615 1305.479,346.677 1305.963,346.739 1306.448,346.800 1306.932,346.861 1307.417,346.922 1307.901,346.982 1308.385,347.043 1308.870,347.103 1309.354,347.163 1309.839,347.222 1310.323,347.282 1310.807,347.341 1311.292,347.400 1311.776,347.458 1312.261,347.517 1312.745,347.575 1313.229,347.633 1313.714,347.691 1314.198,347.748 1314.683,347.806 1315.167,347.863 1315.651,347.920 1316.136,347.976 1316.620,348.033 1317.105,348.089 1317.589,348.145 1318.073,348.201 1318.558,348.256 1319.042,348.312 1319.527,348.367 1320.011,348.422 1320.495,348.477 1320.980,348.531 1321.464,348.586 1321.949,348.640 1322.433,348.694 1322.918,348.748 1323.402,348.801 1323.886,348.855 1324.371,348.908 1324.855,348.961 1325.340,349.013 1325.824,349.066 1326.308,349.118 1326.793,349.171 1327.277,349.223 1327.762,349.274 1328.246,349.326 1328.730,349.377 1329.215,349.429 1329.699,349.480 1330.184,349.531 1330.668,349.581 1331.152,349.632 1331.637,349.682 1332.121,349.732 1332.606,349.782 1333.090,349.832 1333.574,349.882 1334.059,349.931 1334.543,349.980 1335.028,350.029 1335.512,350.078 1335.996,350.127 1336.481,350.175 1336.965,350.224 1337.450,350.272 1337.934,350.320 1338.418,350.368 1338.903,350.416 1339.387,350.463 1339.872,350.511 1340.356,350.558 1340.840,350.605 1341.325,350.652 1341.809,350.698 1342.294,350.745 1342.778,350.791 1343.263,350.838 1343.747,350.884 1344.231,350.929 1344.716,350.975 1345.200,351.021 1345.685,351.066 1346.169,351.112 "/>
<g>
</g>
</g>
<g clip-path="url(#ID000010)">
      <polyline fill="none" stroke="#000000" stroke-width="3.5pt" stroke-dasharray="none" points="1104.451,179.873 1104.935,180.389 1105.420,180.906 1105.904,181.422 1106.389,181.938 1106.873,182.455 1107.357,182.971 1107.842,183.487 1108.326,184.003 1108.811,184.520 1109.295,185.036 1109.779,185.552 1110.264,186.069 1110.748,186.585 1111.233,187.101 1111.717,187.618 1112.201,188.134 1112.686,188.650 1113.170,189.167 1113.655,189.683 1114.139,190.199 1114.623,190.716 1115.108,191.232 1115.592,191.748 1116.077,192.265 1116.561,192.781 1117.045,193.297 1117.530,193.814 1118.014,194.330 1118.499,194.846 1118.983,195.363 1119.467,195.879 1119.952,196.395 1120.436,196.912 1120.921,197.428 1121.405,197.944 1121.890,198.461 1122.374,198.977 1122.858,199.493 1123.343,200.009 1123.827,200.526 1124.312,201.042 1124.796,201.558 1125.280,202.075 1125.765,202.591 1126.249,203.107 1126.734,203.624 1127.218,204.140 1127.702,204.656 1128.187,205.173 1128.671,205.689 1129.156,206.205 1129.640,206.722 1130.124,207.238 1130.609,207.754 1131.093,208.271 1131.578,208.787 1132.062,209.303 1132.546,209.820 1133.031,210.336 1133.515,210.852 1134.000,211.369 1134.484,211.885 1134.968,212.401 1135.453,212.918 1135.937,213.434 1136.422,213.950 1136.906,214.467 1137.390,214.983 1137.875,215.499 1138.359,216.016 1138.844,216.532 1139.328,217.048 1139.812,217.564 1140.297,218.081 1140.781,218.597 1141.266,219.113 1141.750,219.630 1142.235,220.146 1142.719,220.662 1143.203,221.179 1143.688,221.695 1144.172,222.211 1144.657,222.728 1145.141,223.244 1145.625,223.760 1146.110,224.277 1146.594,224.793 1147.079,225.309 1147.563,225.826 1148.047,226.342 1148.532,226.858 1149.016,227.375 1149.501,227.891 1149.985,228.407 1150.469,228.924 1150.954,229.440 1151.438,229.956 1151.923,230.473 1152.407,230.989 1152.891,231.505 1153.376,232.022 1153.860,232.538 1154.345,233.054 1154.829,233.570 1155.313,234.087 1155.798,234.603 1156.282,235.119 1156.767,235.636 1157.251,236.152 1157.735,236.668 1158.220,237.185 1158.704,237.701 1159.189,238.217 1159.673,238.734 1160.157,239.250 1160.642,239.766 1161.126,240.283 1161.611,240.799 1162.095,241.315 1162.580,241.832 1163.064,242.348 1163.548,242.864 1164.033,243.381 1164.517,243.897 1165.002,244.413 1165.486,244.930 1165.970,245.446 1166.455,245.962 1166.939,246.479 1167.424,246.995 1167.908,247.511 1168.392,248.028 1168.877,248.544 1169.361,249.060 1169.846,249.577 1170.330,250.093 1170.814,250.609 1171.299,251.125 1171.783,251.642 1172.268,252.158 1172.752,252.674 1173.236,253.191 1173.721,253.707 1174.205,254.223 1174.690,254.740 1175.174,255.256 1175.658,255.772 1176.143,256.289 1176.627,256.805 1177.112,257.321 1177.596,257.838 1178.080,258.354 1178.565,258.870 1179.049,259.387 1179.534,259.903 1180.018,260.419 1180.502,260.936 1180.987,261.452 1181.471,261.968 1181.956,262.485 1182.440,263.001 1182.925,263.517 1183.409,264.034 1183.893,264.550 1184.378,265.066 1184.862,265.583 1185.347,266.099 1185.831,266.615 1186.315,267.131 1186.800,267.648 1187.284,268.164 1187.769,268.680 1188.253,269.197 1188.737,269.713 1189.222,270.229 1189.706,270.746 1190.191,271.262 1190.675,271.778 1191.159,272.295 1191.644,272.811 1192.128,273.327 1192.613,273.844 1193.097,274.360 1193.581,274.876 1194.066,275.393 1194.550,275.909 1195.035,276.425 1195.519,276.942 1196.003,277.458 1196.488,277.974 1196.972,278.491 1197.457,279.007 1197.941,279.523 1198.425,280.040 1198.910,280.556 1199.394,281.072 1199.879,281.589 1200.363,282.105 1200.847,282.621 1201.332,283.137 1201.816,283.654 1202.301,284.170 1202.785,284.686 1203.270,285.203 1203.754,285.719 1204.238,286.235 1204.723,286.752 1205.207,287.268 1205.692,287.784 1206.176,288.301 1206.660,288.817 1207.145,289.333 1207.629,289.850 1208.114,290.366 1208.598,290.882 1209.082,291.399 1209.567,291.915 1210.051,292.431 1210.536,292.948 1211.020,293.464 1211.504,293.980 1211.989,294.497 1212.473,295.013 1212.958,295.529 1213.442,296.046 1213.926,296.562 1214.411,297.078 1214.895,297.595 1215.380,298.111 1215.864,298.627 1216.348,299.144 1216.833,299.660 1217.317,300.176 1217.802,300.692 1218.286,301.209 1218.770,301.725 1219.255,302.241 1219.739,302.758 1220.224,303.274 1220.708,303.790 1221.192,304.307 1221.677,304.823 1222.161,305.339 1222.646,305.856 1223.130,306.372 1223.615,306.888 1224.099,307.405 1224.583,307.921 1225.068,308.437 1225.552,308.954 1226.037,309.470 1226.521,309.986 1227.005,310.503 1227.490,311.019 1227.974,311.535 1228.459,312.052 1228.943,312.568 1229.427,313.084 1229.912,313.601 1230.396,314.117 1230.881,314.633 1231.365,315.150 1231.849,315.666 1232.334,316.182 1232.818,316.698 1233.303,317.215 1233.787,317.731 1234.271,318.247 1234.756,318.764 1235.240,319.280 1235.725,319.796 1236.209,320.313 1236.693,320.829 1237.178,321.345 1237.662,321.862 1238.147,322.378 1238.631,322.894 1239.115,323.411 1239.600,323.927 1240.084,324.443 1240.569,324.960 1241.053,325.476 1241.538,325.992 1242.022,326.509 1242.506,327.025 1242.991,327.541 1243.475,328.058 1243.960,328.574 1244.444,329.090 1244.928,329.607 1245.413,330.123 1245.897,330.639 1246.382,331.156 1246.866,331.672 1247.350,332.188 1247.835,332.705 1248.319,333.221 1248.804,333.737 1249.288,334.253 1249.772,334.770 1250.257,335.286 1250.741,335.802 1251.226,336.319 1251.710,336.835 1252.194,337.351 1252.679,337.868 1253.163,338.384 1253.648,338.900 1254.132,339.417 1254.616,339.933 1255.101,340.449 1255.585,340.966 1256.070,341.482 1256.554,341.998 1257.038,342.515 1257.523,343.031 1258.007,343.547 1258.492,344.064 1258.976,344.580 1259.460,345.096 1259.945,345.613 1260.429,346.129 1260.914,346.645 1261.398,347.162 1261.883,347.678 1262.367,348.194 1262.851,348.711 1263.336,349.227 1263.820,349.743 1264.305,350.259 1264.789,350.776 1265.273,351.292 1265.758,351.808 1266.242,352.325 1266.727,352.841 1267.211,353.357 1267.695,353.874 1268.180,354.390 1268.664,354.906 1269.149,355.423 1269.633,355.939 1270.117,356.455 1270.602,356.972 1271.086,357.488 1271.571,358.004 1272.055,358.521 1272.539,359.037 1273.024,359.553 1273.508,360.070 1273.993,360.586 1274.477,361.102 1274.961,361.619 1275.446,362.135 1275.930,362.651 1276.415,363.168 1276.899,363.684 1277.383,364.200 1277.868,364.717 1278.352,365.233 1278.837,365.749 1279.321,366.265 1279.805,366.782 1280.290,367.298 1280.774,367.814 1281.259,368.331 1281.743,368.847 1282.228,369.363 1282.712,369.880 1283.196,370.396 1283.681,370.912 1284.165,371.429 1284.650,371.945 1285.134,372.461 1285.618,372.978 1286.103,373.494 1286.587,374.010 1287.072,374.527 1287.556,375.043 1288.040,375.559 1288.525,376.076 1289.009,376.592 1289.494,377.108 1289.978,377.625 1290.462,378.141 1290.947,378.657 1291.431,379.174 1291.916,379.690 1292.400,380.206 1292.884,380.723 1293.369,381.239 1293.853,381.755 1294.338,382.272 1294.822,382.788 1295.306,383.304 1295.791,383.820 1296.275,384.337 1296.760,384.853 1297.244,385.369 1297.728,385.886 1298.213,386.402 1298.697,386.918 1299.182,387.435 1299.666,387.951 1300.150,388.467 1300.635,388.984 1301.119,389.500 1301.604,390.016 1302.088,390.533 1302.573,391.049 1303.057,391.565 1303.541,392.082 1304.026,392.598 1304.510,393.114 1304.995,393.631 1305.479,394.147 1305.963,394.663 1306.448,395.180 1306.932,395.696 1307.417,396.212 1307.901,396.729 1308.385,397.245 1308.870,397.761 1309.354,398.278 1309.839,398.794 1310.323,399.310 1310.807,399.826 1311.292,400.343 1311.776,400.859 1312.261,401.375 1312.745,401.892 1313.229,402.408 1313.714,402.924 1314.198,403.441 1314.683,403.957 1315.167,404.473 1315.651,404.990 1316.136,405.506 1316.620,406.022 1317.105,406.539 1317.589,407.055 1318.073,407.571 1318.558,408.088 1319.042,408.604 1319.527,409.120 1320.011,409.637 1320.495,410.153 1320.980,410.669 1321.464,411.186 1321.949,411.702 1322.433,412.218 1322.918,412.735 1323.402,413.251 1323.886,413.767 1324.371,414.284 1324.855,414.800 1325.340,415.316 1325.824,415.832 1326.308,416.349 1326.793,416.865 1327.277,417.381 1327.762,417.898 1328.246,418.414 1328.730,418.930 1329.215,419.447 1329.699,419.963 1330.184,420.479 1330.668,420.996 1331.152,421.512 1331.637,422.028 1332.121,422.545 1332.606,423.061 1333.090,423.577 1333.574,424.094 1334.059,424.610 1334.543,425.126 1335.028,425.643 1335.512,426.159 1335.996,426.675 1336.481,427.192 1336.965,427.708 1337.450,428.224 1337.934,428.741 1338.418,429.257 1338.903,429.773 1339.387,430.290 1339.872,430.806 1340.356,431.322 1340.840,431.839 1341.325,432.355 1341.809,432.871 1342.294,433.387 1342.778,433.904 1343.263,434.420 1343.747,434.936 1344.231,435.453 1344.716,435.969 1345.200,436.485 1345.685,437.002 1346.169,437.518 "/>
<g>
</g>
</g>
  <g transform="translate(1061.696,243.799)">
    <g transform="rotate(-90.0)">
      <text x="0.000" y="0.000" font-family="Helvetica" text-anchor="middle" font-size="17.6pt" fill="#000000" >Population response, P</text>
    </g>
  </g>
  <g transform="translate(1181.646,397.023)">
    <g transform="rotate(-0.0)">
      <text x="0.000" y="0.000" font-family="Helvetica" text-anchor="middle" font-size="17.6pt" fill="#000000" >Spatial frequency</text>
    </g>
  </g>
    </g>
    <g>
      <polyline fill="none" stroke="#000000" stroke-width="3.5pt" stroke-dasharray="none" points="1104.451,338.141 1104.451,335.901 "/>
      <polyline fill="none" stroke="#000000" stroke-width="3.5pt" stroke-dasharray="none" points="1173.513,338.141 1173.513,335.901 "/>
      <polyline fill="none" stroke="#000000" stroke-width="3.5pt" stroke-dasharray="none" points="1242.576,338.141 1242.576,335.901 "/>
      <polyline fill="none" stroke="#000000" stroke-width="3.5pt" stroke-dasharray="none" points="1087.185,338.141 1277.107,338.141 "/>
  <g transform="translate(1104.451,359.539)">
    <g transform="rotate(-0.0)">
      <text x="0.000" y="0.000" font-family="Helvetica" text-anchor="middle" font-size="17.6pt" fill="#000000" >0.1</text>
    </g>
  </g>
  <g transform="translate(1173.513,359.539)">
    <g transform="rotate(-0.0)">
      <text x="0.000" y="0.000" font-family="Helvetica" text-anchor="middle" font-size="17.6pt" fill="#000000" >0.3</text>
    </g>
  </g>
  <g transform="translate(1242.576,359.539)">
    <g transform="rotate(-0.0)">
      <text x="0.000" y="0.000" font-family="Helvetica" text-anchor="middle" font-size="17.6pt" fill="#000000" >0.5</text>
    </g>
  </g>
      <polyline fill="none" stroke="#000000" stroke-width="3.5pt" stroke-dasharray="none" points="1087.185,179.873 1089.085,179.873 "/>
      <polyline fill="none" stroke="#000000" stroke-width="3.5pt" stroke-dasharray="none" points="1087.185,338.141 1087.185,148.219 "/>
  <g transform="translate(1083.387,344.741)">
    <g transform="rotate(-0.0)">
      <text x="0.000" y="0.000" font-family="Helvetica" text-anchor="end" font-size="17.6pt" fill="#000000" >0</text>
    </g>
  </g>
  <g transform="translate(1083.387,186.473)">
    <g transform="rotate(-0.0)">
      <text x="0.000" y="0.000" font-family="Helvetica" text-anchor="end" font-size="17.6pt" fill="#000000" >1</text>
    </g>
  </g>
      <polyline fill="none" stroke="#000000" stroke-width="3.5pt" stroke-dasharray="none" points="1087.185,338.141 1087.185,336.241 "/>
      <polyline fill="none" stroke="#000000" stroke-width="3.5pt" stroke-dasharray="none" points="1087.185,338.141 1087.185,338.141 "/>
    </g>
  </g>
  <g>
  <clipPath id="ID000011">
    <rect x="1176.250" y="150.250" width="95.500" height="57.625"/>
  </clipPath>
    <g>
  <g transform="translate(1226.487,170.843)">
    <g transform="rotate(-0.0)">
      <text x="0.000" y="0.000" font-family="Helvetica" text-anchor="start" font-size="11.2pt" fill="#000000" >50%</text>
    </g>
  </g>
<g clip-path="url(#ID000011)">
      <polyline fill="none" stroke="#727272" stroke-width="3.5pt" stroke-dasharray="none" points="1183.750,165.750 1221.250,165.750 "/>
<g>
</g>
</g>
<g clip-path="url(#ID000011)">
<g>
</g>
</g>
  <g transform="translate(1226.487,197.669)">
    <g transform="rotate(-0.0)">
      <text x="0.000" y="0.000" font-family="Helvetica" text-anchor="start" font-size="11.2pt" fill="#000000" >100%</text>
    </g>
  </g>
<g clip-path="url(#ID000011)">
      <polyline fill="none" stroke="#000000" stroke-width="3.5pt" stroke-dasharray="none" points="1183.750,192.375 1221.250,192.375 "/>
<g>
</g>
</g>
<g clip-path="url(#ID000011)">
<g>
</g>
</g>
    </g>
  </g>
</svg>
